<svg id="Layer_1" data-name="Layer 1" xmlns="http://www.w3.org/2000/svg" xmlns:xlink="http://www.w3.org/1999/xlink" viewBox="0 0 1367.76 769.34"><defs><style>.cls-1{stroke:#2e3192;fill:url(#linear-gradient);}.cls-1,.cls-14{stroke-miterlimit:10;}.cls-2{fill:none;}.cls-3{fill:url(#linear-gradient-2);}.cls-4{fill:#ffff8f;}.cls-5{fill:url(#linear-gradient-3);}.cls-6{fill:url(#linear-gradient-4);}.cls-7{fill:url(#linear-gradient-5);}.cls-8{fill:url(#linear-gradient-6);}.cls-9{fill:url(#linear-gradient-7);}.cls-10{fill:url(#linear-gradient-8);}.cls-11{fill:#4d4d4d;}.cls-12{fill:url(#linear-gradient-9);}.cls-13{fill:#ff0;}.cls-14{stroke:#000;}.cls-15{fill:#fff;}</style><linearGradient id="linear-gradient" x1="1367.04" y1="573" x2="1.04" y2="573" gradientTransform="matrix(1, 0, 0, -1, 0, 898)" gradientUnits="userSpaceOnUse"><stop offset="0" stop-color="#29abe2"/><stop offset="0.04" stop-color="#28a2da"/><stop offset="0.09" stop-color="#2688c5"/><stop offset="0.17" stop-color="#225fa2"/><stop offset="0.26" stop-color="#1d2673"/><stop offset="0.28" stop-color="#1b1464"/><stop offset="0.87" stop-color="#1a1a1a"/><stop offset="0.99"/></linearGradient><linearGradient id="linear-gradient-2" x1="683.18" y1="577.81" x2="683.18" y2="130.36" gradientTransform="matrix(1, 0, 0, -1, 0.86, 898.86)" gradientUnits="userSpaceOnUse"><stop offset="0" stop-color="#fff"/><stop offset="0.1" stop-color="#efefef"/><stop offset="0.29" stop-color="#c4c4c4"/><stop offset="0.56" stop-color="#7f7f7f"/><stop offset="0.89" stop-color="#212121"/><stop offset="1"/></linearGradient><linearGradient id="linear-gradient-3" x1="497.7" y1="470.79" x2="497.7" y2="129.52" gradientTransform="matrix(1, 0, 0, -1, 0.86, 898.86)" gradientUnits="userSpaceOnUse"><stop offset="0" stop-color="#fff"/><stop offset="0.09" stop-color="#bdbdbd"/><stop offset="0.18" stop-color="#838383"/><stop offset="0.26" stop-color="#545454"/><stop offset="0.34" stop-color="#303030"/><stop offset="0.41" stop-color="#151515"/><stop offset="0.48" stop-color="#060606"/><stop offset="0.53"/></linearGradient><linearGradient id="linear-gradient-4" x1="274.59" y1="657.88" x2="7.23" y2="657.88" gradientTransform="matrix(1, 0, 0, -1, 0.86, 898.86)" gradientUnits="userSpaceOnUse"><stop offset="0" stop-color="#fff"/><stop offset="1"/></linearGradient><linearGradient id="linear-gradient-5" x1="926.17" y1="679.51" x2="1131.85" y2="679.51" xlink:href="#linear-gradient-4"/><linearGradient id="linear-gradient-6" x1="1161.26" y1="345.75" x2="1366.9" y2="345.75" xlink:href="#linear-gradient-4"/><linearGradient id="linear-gradient-7" x1="372.86" y1="368.84" x2="141.43" y2="368.84" xlink:href="#linear-gradient-4"/><linearGradient id="linear-gradient-8" x1="425.45" y1="505.61" x2="307.91" y2="505.61" xlink:href="#linear-gradient-4"/><linearGradient id="linear-gradient-9" x1="917.64" y1="705.84" x2="468.46" y2="705.84" gradientTransform="matrix(1, 0, 0, -1, 0.86, 898.86)" gradientUnits="userSpaceOnUse"><stop offset="0" stop-color="#fff"/><stop offset="0.2" stop-color="#fcfcfc"/><stop offset="0.33" stop-color="#f3f3f3"/><stop offset="0.45" stop-color="#e4e4e4"/><stop offset="0.55" stop-color="#cfcfcf"/><stop offset="0.65" stop-color="#b3b3b3"/><stop offset="0.74" stop-color="#919191"/><stop offset="0.83" stop-color="#686868"/><stop offset="0.91" stop-color="#393939"/><stop offset="0.99" stop-color="#060606"/><stop offset="1"/></linearGradient></defs><title>hideg_meleg</title><g id="pelyhek"><rect class="cls-1" x="1.04" y="0.5" width="1366" height="649"/><line class="cls-2" y1="649.5" x2="1366" y2="649.5"/><path class="cls-3" d="M1,768.5H1367V373.86S1169,310,1053,322.73s-274,49.75-274,49.75-295,1.38-328,0c0,0-116.1,1.38-140.69,12C282.78,396.37,1,409.48,1,409.48Z"/><circle class="cls-4" cx="1261.7" cy="84.82" r="71.28"/><path class="cls-5" d="M636.48,428.07S614,488,539.65,486.51c-94.94-1.9-193.89,26.35-110.69,71.09,11.78,4.53,178,51.89,27.71,60.93,0,0-114.44-7.74-90.54,61.81s-106,89-106,89H501.36s97-23-29-59.92c0,0-100-28.35,43.09-53.17,0,0,235.78-31,132-70,0,0-131.81-10.74,19.68-67.54S676.52,430,676.52,430Z"/><path d="M364.15,406.63l18.06,6.23,27-6.19s20.35-2.65,23-3.54,24.77,0,24.77,0,8.85-6.19,12.39-7.08,10.61,0,10.61,0-4.42-6.19,0-6.19,29.2,6.19,29.2,6.19,21.23,1.77,20.34-.88-12.38-18.58-12.38-18.58h12.41l-13.3-14.15,3.54-7.08h9.76L507.46,333.2l13.27-4.42,8.87,8s-4.45-10.61,3.51-8,14.15,5.31,14.15,5.31l4.43-5.73L503,310.2l6.2-6.19-19.47-11.5,11.5-7.08,10.6,5.31s-3.54-2.65,0-5.31,14.15,0,14.15,0l-43.32-18.57-16.83-8s-11.5-11.5.88-8.85l12.39,2.65,3.54-3,1.77-7.56-26.54-11.5-8-5.31h8l-6.2-14.15-6.17-13.23,12.39-3.54-13.27-12.39,8-12.38s-8.85-8.85-8.85-11.5-2.65-23-2.65-23L435,156.28l-8,20.34,8.85,1.77-12.38,17.7,8.83,1.77,2.66,13.27-5.31,15.92-14.16,16.81-21.23,13.27-7.07,16.8,17.71-11.5s5.31,9.73,7.08,7.08,19.46-14.15,19.46-14.15l3.54,12.38-19.49,10.62-22.11,8-11.13,6.19-12.76,17.69,16.81-10.61,9.73,8L403.07,297c4.42,4.43,14.15-2.65,18.58-2.65H435.8l-8,15-27.42,7.08-10.62,6.19-15.9,13.23,8.33,9.73,4.94-12.39,5.3,12.39,9.73-15.92v12.38L419,330.55,398.63,356.2l5.3,8,5.31-11.5,13.27-7.08L411.9,363.31l-22.12,15-7.59,13.27Z"/><path class="cls-6" d="M8.09,430.2,33.86,439l38.58-8.83s29-3.78,32.8-5,35.32,0,35.32,0,12.62-8.83,17.67-10.1,15.13,0,15.13,0-6.3-8.83,0-8.83S215,415.1,215,415.1s30.28,2.53,29-1.26-17.66-26.49-17.66-26.49H244l-19-20.18,5-10.09H244l-31.58-31.54,18.92-6.31L244,330.58s-6.35-15.13,5-11.35,20.19,7.57,20.19,7.57l6.31-8.18-69.39-25.88,8.83-8.83-27.75-16.4,16.4-10.09L218.68,265s-5.05-3.79,0-7.57,20.18,0,20.18,0l-61.73-26.56-24-11.35s-16.4-16.4,1.26-12.61l17.66,3.78,5-4.35,2.52-10.79-37.76-16.38-11.36-7.57h11.36L133,151.41l-8.84-18.92,17.67-5-19-17.71,11.36-17.66S121.6,79.5,121.6,75.72s-3.74-32.8-3.74-32.8L109,73.2l-11.36,29,12.62,2.52L92.61,130l12.61,2.53L109,151.41l-7.57,22.71-20.19,24L51,217,40.86,241l25.23-16.4s7.56,13.87,10.09,10.09,27.75-20.19,27.75-20.19l5,17.67L81.25,247.28,49.72,258.64l-15.86,8.83L15.66,292.7l24-15.14,13.88,11.35,10.09-15.13c6.31,6.3,20.19-3.79,26.49-3.79h20.19l-11.4,21.45-39,10.09-15.19,8.83L22,329.28l11.9,13.88,7-17.66,7.56,17.66L62.3,320.45v17.66l24-16.4-29,36.59,7.56,11.35,7.57-16.4,18.92-10.09L76.21,368.39,44.67,389.86l-10.81,18.9Z"/><path class="cls-7" d="M1117.78,414.86s-19.79-3.71-22.88-3.71-19.17,1.85-19.17,1.85-.61-1.85-8.65,0-11.75-1.85-13,1.86-4.94,6.8-4.94,6.8-16.08-3.71-21-5.26-20.4,0-20.4,0-1.24-7.11-5.57-5.25-21.64,9.27-28.44,10.51l-6.8,1.24H956.4v-6h-3.09l2.16-8.81h-5.26l5.88-7.11,7.42-5,.93-7.11-3.71,4.94-2.17-3.1L956.09,397l-3.71-8-2.17,3.71L947.74,389l-2.16,5.56L942.49,389l-6.19,5.26V389H927s7.11-5.26,8-5.87,6.83-14.22,6.83-14.22,6.18-9.58,13.6-9.89l7.73-3.09s-1.24-4.64,9.27-9.58l5.88-6.81-2.17-4h-4.94l-4,3.1-.31-3.1-4,1.86L958,335.49l-6.49,9-1.54-9-10.21,9-2.16,6.18L937,339.85l-5.28,7L929.5,350l1.24-8.66,8.35-13.6-4.33-2.79,6.8-3.09,4.33-4h2.47l5-6.8h11.13l8-13.29H969.4L976.82,286l-5.25,3.4L971,286l-3.4,2.16v-6.8h-4.33l-5.89,6.52L956.4,290l-.62-6.19-4.33,1.24-4.59,4.61s.31-4.33-.61-4.33-7.11,5.57-7.11,5.57l.3-4.64-8.34,4.64,9.58-9.59,5.57-1.85s.61-4.64,1.85-4.95a32.38,32.38,0,0,1,5.57,0l5.56-5.87h5.57l7.42-4.33,3.64-2.48s-4-2.78-5-2.47-3.4,2.78-3.4,2.78l-1.55-2.8-3.1,1.88-4.33-4.64-5.87,3.71,9.89-13.6h-4.33L974,230.33l8-5.71,2.78-7.89,4.33-2.17L983.23,213s.61-3.4-.62-3.71-6.19,2.78-6.19,2.78.31-2.83-.92-2.81-6.81,3.12-6.81,3.12l11.75-9.9,7.73-3.09,3.4-5.25,6.49-3.09,6.5-4.33,3.09-6.19s3.71-4,2.47-4-5.87,1.85-5.87,1.85l2.16-6.8-5.56,2.47,1.54-8.65h-5.53l-6.49,2.78,9.27-9.9-5.78-1.55.31-6.8H982.06l-4.64,2.47,3.4-10.2-3.71-4.64h21.33l6.5-3.71,4.32-2.47-3.71-3.71h-2.78s-2.16-3.09-3.09-2.48-4.33,3.71-4.33,3.71l3.09-8.34-12.67,4.33,13-7.73,9.28,1.54h9l5.41-2.78,3.87,2.16h6.8s4-6.49,3.09-6.49-6.8,3.09-6.8,3.09l5-11.75h-8.66V98.32h-10.51l1.24-4.64h-5.88l13.91-9.58-2-2.48,8.82-1.85h9.27s2.78-5.26,1.86-5a39.22,39.22,0,0,1-5.57,0l6.8-7.1h-9l10.51-5.26-2.78-2.78,1.85-4.94-14.22-4.64,13.6,1.85,1.2-7,3.71-8.34,4.64-8.35,1.23-12.37,1.24,12.37-1.24,9.58-.93,8.66-1.85,4,1.85.31,10.52-8,3.4-2.17-5,7.42-7.73,6.5-.93,3.71-3.71,3.4s7.11-1.24,7.42-2.17,6.81-5.56,6.81-5.56l-4.64,8.35-8,3.4.62,7.42,5.25,1.54L1056.6,77l6.18.92,2.78,1.86L1070.2,86l11.13-4.64L1077,85.69l-5.25,5.57,8.34-.93,10.51-2.16-15.45,6.49,3.4,2.16,7.73,2.78-22.57,2.17-7.73,6.8,7.42-3.71,13,.31,6.19,5.87-8.35-2.78-12.06,3.09-6.8,3.09,11.44.31,10.82,3.71,4.33,3.4,11.44,7.11s-5.57.62-6.19-.3-8-4.33-8-4.33l-11.13-2.79,6.8,3.71,3.71,3.41-7.42-1.24-5.88-1.24,5.57,4.64,2.47,1.24-8.66-.93-5.25.31,4.64,3.09,8.65,8.66,10.21,5.25-8,3.09,5.56,8.35,2.17,5.57s4.32,3.09,8.65,6.8l4.33,3.71L1112,189.26l-.93,4.33,9.58,7.73-16.07-7.11-9.28-.93-7.73,2.16-8,1.24h-5.25l2.47,4.33,4.64,5,5.26,4.63v5.88l9,11.13,8.35,5.25.62,3.09-10.51-4.32-6.81-1.86-4-1.54,6.81,7.11,10.2,5.87-11.13-1.85-8-3.71-5.26-2.17-4.94-.31,6.49,8.35,7.73,9.27,7.42,7.42,5.56,13.61,3.71,10.2,8.35,5.26-6.49,1.85,1.24,4.64,3.4,4.33,5.87,13.91,2.53,5.81-11.44-5.56-5.87-4.95-5.26-8.35,4.33,11.13,5.26,12.06,2.47,8,7.73,3.71,3.71,7.73,6.8,11.75,3.09,2.47s-7.11-.93-8-1.24-9.59-4.63-9.59-4.63-5-.62-5.87-.62-9.9-4-9.9-4l7.11,6.8,7.73,7.73,7.11,11.13,8.66,11.13,2.78,10.82,5,12.37s-5-2.79-5.87-2.79-3.4,2.79-3.4,2.79l-7.73-4.64,3.71,8.35-3.1,2.78Z"/><path d="M30.11,730.61s26.82-5,31-5,26,2.51,26,2.51.84-2.51,11.73,0,15.93-2.51,17.6,2.52,6.71,9.22,6.71,9.22,21.78-5,28.49-7.13,27.65,0,27.65,0,1.68-9.63,7.55-7.12,29.32,12.54,38.54,14.25l9.21,1.67h14.27v-8.17h4.19l-2.93-11.94h7.12l-8-9.64-10.06-6.7-1.25-9.64,5,6.71,2.94-4.19,3.35,8.38,5-10.9,2.93,5,3.35-5,2.94,7.54,4.19-7.54,8.38,7.12v-7.12h12.57s-9.64-7.12-10.9-8-9.22-19.27-9.22-19.27-8.38-13-18.43-13.41l-10.48-4.19s1.68-6.29-12.57-13l-8-9.22,2.93-5.45h6.71l5.44,4.19.42-4.19,5.45,2.52,6.71-2.52,8.79,12.15,2.1-12.15,13.83,12.15,2.93,8.38.84-14.66,7.12,9.64,2.93,4.19-1.56-11.74L272.3,612.43l5.87-3.77L269,604.47,263.09,599h-3.36L253,589.8H238l-10.9-18h4.19l-10-15.92,7.12,4.61.84-4.61,4.56,3v-9.22h5.86l8,8.8,1.26,2.94.84-8.38,5.86,1.67,6.29,6.29s-.42-5.87.84-5.87,9.63,7.54,9.63,7.54l-.41-6.28,11.31,6.28-13-13-7.54-2.51s-.84-6.28-2.52-6.7-7.54,0-7.54,0l-7.54-8h-7.54l-10.06-5.87-5-3.35s5.45-3.77,6.71-3.36,4.61,3.78,4.61,3.78l2-3.76,4.19,2.55,5.87-6.29,8,5-13.46-18.45h5.87L225,480.46l-10.9-7.74L210.29,462l-5.87-2.93,8-2.1s-.84-4.61.83-5,8.38,3.78,8.38,3.78-.41-3.83,1.26-3.8,9.22,4.21,9.22,4.21l-15.92-13.4-10.48-4.19-4.61-7.13-8.8-4.19-8.8-5.86L179.31,413s-5-5.45-3.35-5.45,8,2.51,8,2.51l-3-9.23,7.54,3.36-2.09-11.74H194l8.8,3.78-12.57-13.4,8-2.1-.42-9.22h16.3l6.29,3.36-4.61-13.83,5-6.29H191.86l-8.8-5-5.86-3.36,5-5H186s2.93-4.19,4.19-3.35,5.86,5,5.86,5l-4.16-11.36L209,337.57,191.45,327.1l-12.59,2.09H166.71l-7.33-3.77-5.24,2.94h-9.22s-5.44-8.8-4.19-8.8,9.22,4.19,9.22,4.19l-6.7-15.89H155v-6.28h14.25l-1.68-6.29h8l-18.85-13,2.72-3.35-11.94-2.51H134.86s-3.77-7.13-2.52-6.71,7.55,0,7.55,0l-9.22-9.62h12.19L128.61,253l3.77-3.77-2.52-6.74,19.27-6.29-18.43,2.52L129,229.05l-5-11.31-6.28-11.32-1.68-16.76-1.67,16.76,1.67,13,1.26,11.73,2.51,5.45-2.51.42-14.25-10.89-4.61-2.94,6.71,10.06,10.47,8.8,1.26,5,5,4.61s-9.64-1.68-10.06-2.94-9.22-7.54-9.22-7.54l6.24,11.33,10.89,4.61-.83,10.06-7.06,2.09,1.26,3.36-8.42,1.23-3.77,2.52-6.29,8.38-15.08-6.27,5.86,5.87,7.13,7.5L81.23,290.6,67,287.67l21,8.8-4.61,2.93-10.52,3.81,30.59,2.94,10.48,9.22-10.06-5-17.6.42-8.38,8L89.21,315l16.34,4.19,9.22,4.19-15.51.42-14.66,5-5.87,4.61-15.5,9.64s7.54.84,8.38-.42,10.89-5.86,10.89-5.86L97.59,333l-9.22,5-5,4.61L93.43,341l8-1.68-7.55,6.28-3.35,1.68L102.27,346l7.12.42-6.29,4.19L91.29,362.3l-13.83,7.12,10.9,4.19-7.5,11.31-3,7.54s-5.86,4.19-11.73,9.22l-5.87,5-22.2,18,1.25,5.86L26.31,441l21.79-9.64,12.57-1.25,10.48,2.93L82,434.73h7.13l-3.31,5.92-6.3,6.71-7.12,6.28v8L60.28,476.69,49,483.86l-.84,4.19,14.25-5.87,9.22-2.51,5.44-2.1-9.18,9.59-13.83,8,15.08-2.51,10.9-5,7.12-2.93,6.7-.42L85,495.61l-10.51,12.5L64.47,518.17l-7.54,18.44-5,13.82-11.34,7.13,8.8,2.51-1.68,6.29-4.61,5.86-8,18.86-3.77,8,15.53-7.58,8-6.71L62,573.48l-5.89,15.08L49,604.86l-3.35,10.9-10.48,5-5,10.47-9.28,16-4.19,3.35s9.63-1.26,10.89-1.68,13-6.28,13-6.28,6.7-.84,8-.84S62,636.33,62,636.33l-9.64,9.22L41.86,656l-9.64,15.09L20.48,686.19l-3.77,14.67L10,717.62s6.71-3.77,8-3.77,4.61,3.77,4.61,3.77l10.48-6.29-5,11.32,4.19,3.77Z"/><path d="M1095.66,444.59s-12.9-2.42-14.92-2.42-12.49,1.21-12.49,1.21-.4-1.21-5.64,0-7.66-1.21-8.46,1.21a11.73,11.73,0,0,1-3.23,4.43s-10.48-2.41-13.7-3.42-13.3,0-13.3,0-.81-4.64-3.63-3.43-14.1,6.05-18.53,6.85l-4.44.81h-6.85v-4h-2l1.39-5.7h-3.43l3.83-4.64,4.84-3.22.6-4.63-2.41,3.19-1.43-2-1.61,4-2.39-5.19-1.41,2.41-1.59-2.41-1.41,3.62-2-3.62-4,3.42v-3.42h-6s4.63-3.43,5.24-3.83,4.43-9.27,4.43-9.27,4-6.25,8.87-6.45l5-2s-.8-3,6-6.24l3.83-4.44-1.41-2.61h-3.23l-2.62,2-.2-2-2.62,1.2-3.22-1.2-4.23,5.84-1-5.84-6.65,5.84-1.41,4-.4-7.05-3.43,4.63-1.41,2,.81-5.65,5.44-8.86-2.82-1.82,4.43-2,2.82-2.62h1.61l3.13-4.44h7.25l5.24-8.67h-2l4.84-7.66-3.43,2.22-.4-2.22L997.75,362v-4.44h-2.89L991,361.74l-.61,1.41-.4-4-2.82.81-3,3s.21-2.82-.4-2.82-4.63,3.63-4.63,3.63l.2-3-5.44,3,6.24-6.25,3.63-1.21s.4-3,1.21-3.22a22,22,0,0,1,3.63,0l3.62-3.83h3.63l4.84-2.82,2.42-1.61s-2.62-1.82-3.23-1.61a11.65,11.65,0,0,0-2.21,1.81l-1-1.83-2,1.22-2.82-3-3.85,2.44L994.5,335h-2.82L1002,324.31l5.24-3.72,1.81-5.14,2.82-1.41-3.83-1s.4-2.22-.4-2.42-4,1.82-4,1.82.2-1.85-.61-1.83-4.43,2-4.43,2l7.66-6.45,5-2,2.21-3.42,4.23-2,4.24-2.82,2-4s2.42-2.62,1.61-2.62a22.41,22.41,0,0,0-3.83,1.21l1.41-4.43-3.62,1.61,1-5.64h-3.61l-4.23,1.81,6-6.45-3.83-1,.2-4.44h-7.85l-3,1.62,2.22-6.65-2.42-3h13.91l4.23-2.42,2.82-1.61-2.42-2.42h-1.81s-1.41-2-2-1.61-2.82,2.42-2.82,2.42l2-5.44-8.27,2.82,8.47-5,6,1h5.85l3.52-1.81,2.52,1.41h4.43s2.62-4.23,2-4.23a30.94,30.94,0,0,0-4.43,2l3.22-7.66h-5.64v-3h-6.85l.8-3h-3.83l9.07-6.25-1.31-1.61,5.74-1.21h6s1.81-3.42,1.21-3.22a22,22,0,0,1-3.63,0l4.43-4.63h-5.84l6.85-3.42-1.81-1.82,1.21-3.22-9.27-3,8.86,1.21.81-4.64,2.42-5.44,3-5.44.81-8.06.8,8.06-.8,6.25-.61,5.64-1.21,2.62,1.21.2,6.85-5.24,2.22-1.41-3.22,4.84-5,4.23-.61,2.42-2.41,2.21s4.63-.8,4.83-1.41,4.44-3.62,4.44-3.62l-3,5.44-5.24,2.21.41,4.84,3.42,1-.6,1.61,4,.6,1.81,1.21,3,4,7.26-3-2.82,2.82-3.43,3.63,5.44-.61,6.85-1.41-10,4.09,2.21,1.41,5,1.82-14.71,1.41-5,4.43,4.83-2.42,8.46.21,4,3.82-5.44-1.81-7.85,2-4.44,2,7.46.2,7,2.42,2.82,2.22,7.46,4.63s-3.63.4-4-.2-5.24-2.82-5.24-2.82l-7.26-1.82,4.44,2.42L1070,258l-4.83-.81-3.83-.8,3.63,3,1.61.81-5.64-.61-3.43.2,3,2,5.65,5.64,6.69,3.43-5.24,2,3.62,5.44,1.41,3.63s2.83,2,5.65,4.43l2.82,2.42,10.68,8.66-.61,2.83,6.25,5L1087,300.64l-6-.61-5,1.41-5.24.81h-3.43l1.62,2.82,3,3.23,3.42,3v3.83l5.85,7.25,5.44,3.43.4,2-6.85-2.82-4.43-1.21-2.62-1,4.43,4.64,6.65,3.83L1077,330l-5.24-2.42-3.43-1.41-3.22-.2,4.23,5.44,5,6,4.83,4.84,3.63,8.87,2.42,6.65,5.44,3.42-4.23,1.21.8,3,2.22,2.82,3.83,9.07,1.81,3.83-7.45-3.63-3.83-3.22-3.43-5.44,2.82,7.25,3.43,7.86,1.61,5.24,5,2.42,2.42,5,4.43,7.65,2,1.61s-4.63-.6-5.24-.8-6.24-3-6.24-3-3.23-.41-3.83-.41-6.45-2.62-6.45-2.62l4.64,4.44,5,5,4.64,7.26,5.64,7.25,1.81,7.06,3.23,8.06a23.56,23.56,0,0,0-3.83-1.82c-.61,0-2.22,1.82-2.22,1.82l-5-3,2.41,5.44-2,1.82Z"/><path d="M367.19,394.16s-16.23-3-18.77-3-15.73,1.52-15.73,1.52-.51-1.52-7.11,0-9.64-1.52-10.65,1.52a14.93,14.93,0,0,1-4.06,5.59s-13.2-3.05-17.26-4.32-16.74,0-16.74,0-1-5.83-4.57-4.31-17.76,7.61-23.34,8.63l-5.58,1h-8.63v-4.93h-2.54l1.78-7.23h-4.31l4.82-5.83,6.09-4.06.76-5.84-3,4.06-1.77-2.54-2,5.08-3-6.6-1.85,3-2-3.05-1.82,4.61-2.53-4.56-5.07,4.32v-4.32h-7.61s5.83-4.31,6.59-4.82,5.62-11.68,5.62-11.68,5.07-7.87,11.16-8.12l6.34-2.54s-1-3.8,7.61-7.86l4.82-5.58L251,329H247l-3.3,2.53-.25-2.53-3.3,1.52L236.05,329l-5.33,7.36L229.45,329l-8.37,7.36-1.78,5.07-.5-8.88-4.32,5.84-1.8,2.51,1-7.1,6.85-11.17L217,320.31l5.58-2.54,3.55-3.29h2l4.06-5.59h9.14L247.9,298h-2.53l6.09-9.64-4.32,2.79-.5-2.79-2.8,1.78v-5.56h-3.55l-4.78,5.3-.76,1.78-.51-5.07-3.55,1-3.8,3.81s.25-3.56-.51-3.56-5.84,4.57-5.84,4.57l.26-3.8-6.85,3.8,7.91-7.83,4.57-1.53s.51-3.8,1.52-4.06a26.82,26.82,0,0,1,4.57,0l4.56-4.82h4.57l6.09-3.55,3-2s-3.3-2.28-4.06-2a15.37,15.37,0,0,0-2.82,2.26l-1.26-2.3-2.54,1.54-3.55-3.8-4.82,3,8.17-11.16h-3.55l12.94-13.45,6.6-4.68,2.28-6.48,3.56-1.78-4.83-1.27s.51-2.79-.5-3-5.08,2.28-5.08,2.28.26-2.32-.76-2.3-5.58,2.56-5.58,2.56l9.64-8.12,6.34-2.54,2.8-4.31,5.32-2.54,5.33-3.55,2.49-5.1s3-3.3,2-3.3a27.28,27.28,0,0,0-4.82,1.53l1.77-5.59-4.56,2,1.27-7.1H268l-5.33,2.28,7.61-8.12-4.82-1.27.25-5.58h-9.8l-3.81,2,2.79-8.37-3-3.81h17.42l5.33-3,3.55-2-3-3h-2.28s-1.78-2.53-2.54-2-3.55,3.05-3.55,3.05l2.54-6.85-10.45,3.44,10.65-6.31,7.61,1.27h7.36l4.44-2.29,3.17,1.78h5.58s3.3-5.33,2.54-5.33-5.58,2.54-5.58,2.54l4.06-9.64h-7.11v-3.81H283l1-3.81h-4.82l11.42-7.86-1.65-2,7.23-1.52h7.61s2.29-4.32,1.53-4.06a26.82,26.82,0,0,1-4.57,0l5.58-5.83h-7.36l8.63-4.31-2.28-2.28,1.58-4.13-11.67-3.81,11.16,1.52,1-5.83,3-6.85,3.81-6.85,1-10.15,1,10.15-1,7.86-.76,7.11L312.86,95l1.52.26,8.63-6.6,2.85-1.82L321.8,93l-6.35,5.33-.76,3-3,2.79s5.83-1,6.09-1.78,5.52-4.48,5.52-4.48l-3.81,6.86-6.63,2.74.51,6.09,4.31,1.26-.76,2,5.07.77,2.29,1.52,3.8,5.07,9.14-3.8-3.56,3.55-4.31,4.57,6.85-.77,8.63-1.77-12.69,5.33,2.79,1.77,6.34,2.29-18.52,1.77-6.34,5.58,6.09-3,10.66.25,5.07,4.82-6.85-2.28-9.9,2.54-5.58,2.53,9.39.26,8.88,3,3.55,2.79,9.39,5.84s-4.57.51-5.07-.25-6.6-3.56-6.6-3.56l-9.13-2.28,5.58,3,3,2.8-6.09-1-4.82-1,4.57,3.8,2,1-7.11-.76-4.31.25,3.81,2.54,7.1,7.1,8.37,4.31-6.59,2.54,4.56,6.85,1.78,4.57s3.55,2.54,7.1,5.58l3.56,3,13.44,10.91-.76,3.55,7.87,6.34L356.17,213l-7.61-.77L342.22,214l-6.6,1h-4.31l2,3.55,3.81,4.06,4.31,3.8v4.82l7.36,9.14,6.85,4.31.5,2.54-8.62-3.55-5.58-1.53-3.3-1.26,5.58,5.83,8.37,4.82L343.46,250l-6.6-3.05-4.31-1.77-4.06-.26,5.47,7,6.34,7.61,6.09,6.09L351,276.72l3,8.37,6.85,4.32-5.29,1.45,1,3.8,2.79,3.56,4.82,11.41,2.28,4.83L357,309.89l-4.81-4L347.91,299l3.55,9.13,4.32,9.9,2,6.59,6.34,3.05,3,6.34,5.59,9.64,2.53,2s-5.83-.76-6.59-1-7.79-3.8-7.79-3.8-4.06-.5-4.82-.5-8.12-3.3-8.12-3.3l5.84,5.58L360.1,349l5.84,9.14,7.1,9.13,2.28,8.88,4.06,10.15s-4.06-2.28-4.82-2.28-2.79,2.28-2.79,2.28l-6.34-3.81,3,6.85-2.53,2.29Z"/><path d="M1239.4,493s-17.47-3.27-20.2-3.27-16.92,1.63-16.92,1.63-.54-1.63-7.64,0-10.37-1.63-11.46,1.64a15.86,15.86,0,0,1-4.37,6s-14.19-3.28-18.56-4.64-18,0-18,0-1.09-6.28-4.91-4.64-19.1,8.18-25.11,9.28l-6,1.09H1097v-5.32h-2.73l1.91-7.78h-4.64l5.19-6.28,6.55-4.37.81-6.27-3.27,4.36-1.91-2.72-2.18,5.45-3.28-7.09-1.91,3.27-2.18-3.27L1087.4,475l-2.73-4.91-5.46,4.64v-4.64H1071s6.28-4.64,7.1-5.19,6-12.55,6-12.55,5.46-8.46,12-8.73l6.82-2.73s-1.09-4.1,8.19-8.46l5.18-6-1.91-3.55H1110l-3.55,2.73-.27-2.73-3.55,1.64-4.37-1.64-5.73,7.92-1.36-7.92-9,7.92-1.91,5.46-.54-9.55-4.64,6.27-1.91,2.73,1.09-7.64,7.37-12-3.83-2.45,6-2.73,3.82-3.55h2.2l4.37-6h9.82l7.1-11.73h-2.73l6.55-10.37-4.64,3-.54-3-3,1.91v-6H1103l-5.21,5.72-.82,1.91-.55-5.46-3.82,1.09-4.09,4.09s.27-3.82-.55-3.82-6.27,4.92-6.27,4.92l.27-4.1-7.37,4.1,8.46-8.46,4.91-1.64s.55-4.1,1.64-4.37a28.75,28.75,0,0,1,4.91,0l4.91-5.18h4.92l6.55-3.82,3.27-2.19s-3.55-2.45-4.36-2.18a15.73,15.73,0,0,0-3,2.46l-1.36-2.48-2.73,1.66-3.82-4.1-5.19,3.28,8.74-12h-3.82l13.91-14.46,7.1-5,2.46-7,3.82-1.91-5.19-1.37s.55-3-.54-3.27-5.46,2.45-5.46,2.45.27-2.49-.82-2.47-6,2.75-6,2.75l10.38-8.74,6.82-2.72,3-4.64,5.73-2.73,5.73-3.82,2.73-5.46s3.28-3.55,2.18-3.55-5.18,1.64-5.18,1.64l1.91-6-4.91,2.19,1.36-7.64h-4.91l-5.73,2.45,8.19-8.73-5.19-1.37.27-6h-10.64l-4.09,2.18,3-9-3.28-4.1h18.83l5.74-3.27,3.82-2.18-3.28-3.28h-2.49s-1.91-2.73-2.72-2.18-3.83,3.27-3.83,3.27l2.73-7.37L1122.86,237l11.47-6.82,8.18,1.37h7.92l4.77-2.46,3.42,1.91h6s3.55-5.73,2.73-5.73-6,2.73-6,2.73l4.37-10.37h-7.64v-4.1h-9.28l1.09-4.09h-5.18L1157,201l-1.78-2.18,7.78-1.64h8.19s2.46-4.64,1.64-4.37a28.87,28.87,0,0,1-4.92,0l6-6.26H1166l9.28-4.64-2.45-2.46,1.63-4.37-12.58-4.1,12,1.64,1.09-6.28,3.28-7.37,4.09-7.37,1.09-10.91,1.09,10.91-1.09,8.46-.82,7.65-1.64,3.54,1.64.28,9.28-7.1,3-1.91-4.36,6.55-6.83,5.73-.82,3.28-3.27,3s6.28-1.09,6.55-1.91,6-4.91,6-4.91l-4.09,7.36-7.1,3,.55,6.55,4.64,1.36-.82,2.18,5.46.82,2.46,1.64,4.09,5.46,9.82-4.1-3.82,3.82-4.64,4.92,7.37-.82,9.28-1.91-13.64,5.73,3,1.91,6.82,2.46-19.92,1.91-6.83,6,6.55-3.27,11.47.27,5.46,5.18-7.37-2.45L1190.23,225l-6,2.73,10.1.27,9.55,3.27,3.82,3,10.1,6.27s-4.92.55-5.46-.27-7.1-3.82-7.1-3.82l-9.82-2.46,6,3.28,3.28,3-6.55-1.09L1193,238.1l4.91,4.09,2.19,1.09-7.64-.82-4.64.28,4.09,2.72,7.64,7.65,9,4.64-7.1,2.72,4.91,7.37,1.92,4.92s3.82,2.72,7.64,6l3.82,3.27,14.46,11.74-.82,3.82,8.46,6.82-14.19-6.27-8.19-.82-6.82,1.91-7.09,1.09h-4.64l2.18,3.82,4.09,4.37,4.64,4.09v5.18l7.92,9.83,7.37,4.64.54,2.73-9.28-3.82-6-1.64-3.55-1.36,6,6.27,9,5.19L1214,338l-7.1-3.27-4.64-1.92-4.37-.27,5.74,7.37,6.82,8.19,6.55,6.55,4.91,12,3.28,9,7.36,4.64-5.73,1.64,1.09,4.09,3,3.82,5.18,12.28,2.46,5.19-10.1-4.91-5.18-4.37-4.64-7.37,3.82,9.83,4.64,10.64,2.18,7.1,6.82,3.27,3.28,6.82,6,10.37,2.73,2.19s-6.28-.82-7.1-1.1-8.46-4.09-8.46-4.09-4.36-.54-5.18-.54-8.73-3.55-8.73-3.55l6.27,6,6.83,6.82,6.27,9.83,7.64,9.82,2.46,9.56,4.37,10.91s-4.37-2.45-5.19-2.45-3,2.45-3,2.45l-6.82-4.09,3.27,7.37-2.73,2.45Z"/><path d="M1178.93,469.33s19.34-3.63,22.37-3.63,18.74,1.82,18.74,1.82.6-1.82,8.46,0,11.49-1.82,12.69,1.81S1246,476,1246,476s15.72-3.63,20.55-5.14,20,0,20,0,1.21-7,5.44-5.14,21.16,9.07,27.81,10.28l6.65,1.21h10.28v-5.9h3l-2.12-8.61h5.14l-5.74-6.95-7.28-4.87-.91-6.95,3.63,4.84,2.11-3,2.42,6.05,3.63-7.86,2.11,3.63,2.42-3.63,2.12,5.44,3-5.44,6,5.14v-5.14h9.07s-7-5.14-7.86-5.74-6.65-13.91-6.65-13.91-6-9.37-13.3-9.67l-7.55-3s1.21-4.54-9.07-9.37l-5.74-6.65,2.11-3.93h4.84l3.93,3,.3-3,3.93,1.81,4.84-1.81,6.34,8.76,1.51-8.76,10,8.76,2.11,6.05.61-10.58,5.14,7,2.11,3-1.21-8.46-8.16-13.3,4.24-2.72-6.65-3-4.24-3.93h-2.41l-4.84-6.65h-10.83l-7.86-13h3l-7.25-11.48,5.14,3.32.6-3.32,3.33,2.11v-6.65h4.23l5.74,6.35.91,2.12.6-6.05,4.23,1.21,4.54,4.54s-.31-4.24.6-4.24,7,5.44,7,5.44l-.3-4.53,8.16,4.53-9.37-9.37-5.44-1.81s-.6-4.53-1.81-4.84a32.94,32.94,0,0,0-5.44,0l-5.44-5.74h-5.44l-7.26-4.23-3.62-2.42s3.92-2.72,4.83-2.42,3.33,2.72,3.33,2.72l1.51-2.74,3,1.84,4.23-4.54,5.74,3.63-9.69-13.41h4.2l-15.41-16-7.86-5.58-2.72-7.72-4.23-2.11,5.74-1.51s-.6-3.33.61-3.63,6,2.72,6,2.72-.3-2.76.91-2.74,6.65,3,6.65,3l-11.49-9.67-7.56-3-3.32-5.14-6.35-3-6.34-4.24-3-6s-3.62-3.93-2.42-3.93,5.75,1.81,5.75,1.81l-2.12-6.65,5.44,2.42-1.51-8.46h5.44l6.35,2.72-9.07-9.67,5.74-1.51-.3-6.65h11.79l4.53,2.41-3.32-10,3.63-4.53h-20.86l-6.35-3.63-4.23-2.42,3.63-3.63h2.72s2.11-3,3-2.41,4.23,3.62,4.23,3.62l-3-8.16L1308,185.8l-12.69-7.55-9.07,1.51h-8.76l-5.29-2.72-3.78,2.11h-6.65s-3.93-6.34-3-6.34,6.64,3,6.64,3l-4.83-11.49H1269v-4.46h10.28l-1.21-4.54h5.81l-13.6-9.36,2-2.42-8.62-1.82h-9.07s-2.72-5.13-1.81-4.83,5.44,0,5.44,0l-6.65-6.93h8.77L1250,124.82l2.72-2.72-1.81-4.84,13.9-4.53-13.3,1.81-1.21-7-3.63-8.16-4.53-8.16-1.32-12.1-1.21,12.09,1.21,9.37.91,8.46,1.81,3.93-1.81.3-10.28-7.86-3.32-2.11,4.83,7.25,7.56,6.35.91,3.63,3.62,3.32s-7-1.21-7.25-2.12-6.65-5.44-6.65-5.44l4.53,8.16,7.86,3.33L1243,135l-5.14,1.52.91,2.41-6,.91-2.72,1.81-4.53,6-10.88-4.54,4.23,4.24,5.14,5.44-8.17-.91-10.24-2.1,15.11,6.35-3.32,2.12-7.56,2.72,22.06,2.11,7.56,6.65-7.25-3.62-12.7.3-6,5.74,8.16-2.72,11.79,3,6.65,3-11.19.3-10.58,3.63-4.23,3.32-11.17,7s5.44.61,6-.3,7.86-4.23,7.86-4.23l10.88-2.72-6.65,3.63-3.62,3.32,7.25-1.21,5.74-1.21-5.46,4.54-2.42,1.2,8.47-.9,5.14.3-4.54,3-8.46,8.47-10,5.13,7.86,3-5.44,8.16-2.11,5.44s-4.23,3-8.47,6.65l-4.23,3.62-16,13,.91,4.23-9.37,7.56,15.72-7,9.06-.91,7.56,2.12,7.86,1.21h5.14l-2.42,4.23-4.53,4.83-5.14,4.54v5.74l-8.77,10.88-8.16,5.14-.6,3,10.27-4.23,6.65-1.81,3.93-1.51-6.65,7-10,5.74,10.88-1.81,7.86-3.63,5.14-2.12,4.83-.3-6.34,8.16-7.56,9.07-7.26,7.25-5.44,13.3-3.62,10-8.16,5.14,6.34,1.81-1.21,4.53-3.32,4.24-5.74,13.6-2.72,5.74,11.18-5.44,5.74-4.84,5.14-8.16-4.19,11-5.14,11.79-2.42,7.86-7.55,3.63-3.63,7.55-6.65,11.49-3,2.42s7-.91,7.86-1.21,9.37-4.54,9.37-4.54,4.83-.6,5.74-.6,9.67-3.93,9.67-3.93l-7,6.65-7.56,7.56-7,10.88-8.46,10.88-2.64,10.57L1164.42,460s4.84-2.72,5.74-2.72,3.33,2.72,3.33,2.72l7.56-4.54-3.63,8.17,3,2.72Z"/><path d="M1079.32,760.1l15.32,5.25,23-5.25s17.26-2.25,19.51-3,21,0,21,0,7.51-5.25,10.51-6,9,0,9,0-3.76-5.26,0-5.26,24.76,5.26,24.76,5.26,18,1.5,17.26-.75-10.5-15.76-10.5-15.76h10.52l-11.28-12,3-6h8.27l-18.83-18.73,11.26-3.75,7.52,6.76s-3.77-9,3-6.76,12,4.5,12,4.5l3.75-4.86-41.27-15.4,5.25-5.25-16.51-9.81,9.76-6,9,4.5s-3-2.25,0-4.5,12,0,12,0l-36.76-15.76-14.26-6.75s-9.76-9.76.75-7.51l10.51,2.25,3-2.59,1.5-6.41-22.5-9.76-6.76-4.5h6.76l-5.26-12L1148.35,583l10.51-3-11.26-10.5,6.75-10.51s-7.5-7.5-7.5-9.76-2.25-19.51-2.25-19.51l-5.26,18L1132.59,565l7.5,1.5-10.5,15,7.5,1.5,2.25,11.26-4.48,13.52-12,14.26-18,11.25-6,14.26,15-9.75s4.5,8.25,6,6,16.51-12,16.51-12l3,10.51-16.51,9L1104.1,658l-9.44,5.25-10.82,15,14.26-9,8.25,6.75,6-9c3.75,3.75,12-2.26,15.76-2.26h12l-6.75,12.76-23.26,6-9,5.25-13.51,11.26,7.07,8.25,4.2-10.44,4.5,10.51,8.26-13.51v10.51l14.24-9.81-17.27,21.77,4.51,6.75,4.5-9.76,11.26-6-9,15-18.76,12.76-6.44,11.25Z"/><path d="M956.05,746.13s19.23-3.61,22.23-3.61,18.64,1.8,18.64,1.8.6-1.8,8.41,0,11.42-1.8,12.62,1.81,4.81,6.61,4.81,6.61,15.63-3.61,20.44-5.11,19.83,0,19.83,0,1.2-6.91,5.41-5.11,21,9,27.65,10.22l6.61,1.2h10.22v-5.86h3l-2.1-8.57h5.11l-5.71-6.91-7.22-4.81-.9-6.91,3.61,4.81,2.1-3,2.41,6,3.64-7.83,2.11,3.61,2.4-3.61,2.11,5.41,3-5.41,6,5.11v-5.11h9s-6.92-5.11-7.82-5.71-6.61-13.82-6.61-13.82-6-9.32-13.22-9.62l-7.51-3s1.2-4.51-9-9.32l-5.71-6.61,2.1-3.91h4.81l3.91,3,.3-3,3.91,1.81,4.8-1.81,6.32,8.72,1.5-8.72,9.92,8.72,2.1,6,.6-10.52L1137,680l2.1,3-1.2-8.42-8.11-13.22,4.2-2.71-6.61-3-4.21-3.91h-2.4l-4.81-6.61h-10.82l-7.81-12.92h3l-7.24-11.33,5.11,3.3.6-3.3,3.31,2.1v-6.61h4.21l5.71,6.31.9,2.11.6-6,4.21,1.2,4.5,4.51s-.3-4.21.6-4.21,6.92,5.41,6.92,5.41l-.3-4.51,8.11,4.51-9.32-9.32-5.41-1.8s-.6-4.51-1.8-4.81a32.58,32.58,0,0,0-5.41,0l-5.41-5.71h-5.41l-7.21-4.21-3.61-2.4s3.91-2.71,4.81-2.41,3.31,2.71,3.31,2.71l1.5-2.73,3,1.83,4.2-4.51,5.71,3.61-9.61-13.23h4.2l-15.32-15.92-7.82-5.55-2.7-7.68-4.21-2.1,5.71-1.5s-.6-3.31.6-3.61,6,2.7,6,2.7-.3-2.74.9-2.72,6.62,3,6.62,3l-11.42-9.62-7.52-3-3.3-5.11-6.31-3-6.31-4.21-3-6s-3.61-3.91-2.4-3.91,5.71,1.81,5.71,1.81l-2.11-6.61,5.41,2.4-1.5-8.41h5.41l6.31,2.7-9-9.62,5.71-1.5-.3-6.61H1088l4.51,2.4-3.3-9.91,3.6-4.51h-20.73l-6.31-3.61-4.21-2.4,3.6-3.61h2.72s2.1-3,3-2.4,4.21,3.6,4.21,3.6l-3-8.11,12.32,4.21-12.62-7.52-9,1.51h-8.72l-5.25-2.71-3.76,2.11h-6.61s-3.91-6.31-3-6.31,6.61,3,6.61,3l-4.8-11.42h8.41v-4.51h10.21l-1.2-4.51h5.71l-13.53-9.31,2-2.41-8.57-1.8h-9s-2.71-5.11-1.81-4.81,5.41,0,5.41,0l-6.61-6.9h8.6l-10.22-5.11,2.7-2.7-1.8-4.81,13.82-4.51-13.22,1.8-1.2-6.91-3.61-8.11-4.51-8.12-1.2-12-1.2,12,1.2,9.32.9,8.42,1.81,3.9-1.81.3-10.21-7.81-3.31-2.1,4.81,7.21,7.51,6.31.9,3.61,3.61,3.3s-6.91-1.2-7.21-2.1-6.61-5.41-6.61-5.41l4.5,8.11,7.82,3.31-.6,7.21-5.11,1.5.9,2.41-6,.9-2.71,1.8-4.5,6-10.8-4.56,4.2,4.21,5.11,5.41-8.11-.9-10.22-2.1,15,6.31-3.31,2.1-7.51,2.7,21.94,2.11,7.51,6.61-7.21-3.61-12.63.3-6,5.71,8.12-2.7,11.72,3,6.61,3-11.12.3-10.52,3.61-4.2,3.3-11.12,6.91s5.41.61,6-.3,7.81-4.2,7.81-4.2l10.82-2.71-6.54,3.62-3.61,3.3,7.21-1.2,5.71-1.2-5.41,4.51-2.4,1.2,8.41-.9,5.11.3-4.5,3L1000,482,990,487.08l7.82,3-5.41,8.12-2.11,5.41s-4.2,3-8.41,6.61l-4.21,3.6-15.93,12.93.91,4.2-9.32,7.52L969,531.55l9-.9,7.52,2.11,7.81,1.2h5.11L996,538.17l-4.5,4.8-5.11,4.51v5.71L977.71,564l-8.11,5.11-.6,3,10.22-4.2,6.61-1.81,3.9-1.5-6.61,6.91-9.92,5.71,10.82-1.8,7.84-3.57,5.11-2.1,4.8-.3-6.31,8.11-7.51,9-7.21,7.21L975.33,607l-3.66,9.85L963.56,622l6.3,1.89-1.2,4.51-3.31,4.21-5.71,13.52-2.7,5.71,11.12-5.41,5.71-4.81,5.1-8.11-4.2,10.82L969.56,656l-2.41,7.81-7.51,3.61L956,675l-6.62,11.42-3,2.41s6.91-.9,7.81-1.21,9.32-4.5,9.32-4.5,4.81-.6,5.71-.6,9.61-3.91,9.61-3.91L972,685.17l-7.51,7.51-6.91,10.82-8.42,10.82-2.7,10.52-4.81,12s4.81-2.7,5.71-2.7,3.31,2.7,3.31,2.7l7.51-4.51-3.61,8.12,3,2.7Z"/><path class="cls-8" d="M1352.86,748.64s-19.79-3.71-22.88-3.71-19.17,1.85-19.17,1.85-.62-1.85-8.65,0-11.75-1.85-13,1.86-5,6.8-5,6.8-16.07-3.71-21-5.26-20.4,0-20.4,0-1.24-7.11-5.57-5.25-21.64,9.27-28.44,10.51l-6.8,1.24h-10.51v-6h-3.1l2.17-8.81h-5.26l5.88-7.11,7.42-5,.92-7.11-3.71,5-2.16-3.1-2.47,6.19-3.71-8-2.17,3.71-2.47-3.71-2.17,5.56-3.09-5.56-6.18,5.25v-5.25h-9.27s7.11-5.26,8-5.87,6.8-14.23,6.8-14.23,6.19-9.58,13.61-9.89l7.73-3.09s-1.24-4.64,9.27-9.59l5.88-6.8-2.17-4h-4.94l-4,3.1-.31-3.1-4,1.86-5-1.86-6.49,9-1.55-9-10.2,9-2.16,6.18-.62-10.82-5.26,7.11-2.16,3.09,1.24-8.65,8.34-13.6-4.33-2.79,6.81-3.09,4.32-4h2.48l4.94-6.8h11.13l8-13.29h-3.09l7.42-11.75-5.26,3.4-.61-3.4-3.4,2.16v-6.8h-4.33l-5.88,6.49-.92,2.17-.62-6.19-4.33,1.24-4.64,4.64s.31-4.33-.62-4.33-7.11,5.56-7.11,5.56l.31-4.63-8.35,4.63,9.59-9.58,5.56-1.85s.62-4.64,1.86-5a32.26,32.26,0,0,1,5.56,0l5.57-5.87h5.67l7.42-4.33,3.71-2.48s-4-2.78-4.94-2.47-3.4,2.78-3.4,2.78l-1.55-2.8-3.09,1.88-4.33-4.64-5.87,3.71,9.89-13.61h-4.33l15.77-16.38,8-5.71,2.78-7.89,4.33-2.17-5.88-1.54s.62-3.4-.62-3.71-6.18,2.78-6.18,2.78.31-2.83-.93-2.81-6.8,3.12-6.8,3.12l11.75-9.9,7.73-3.09,3.4-5.25,6.49-3.09,6.49-4.33,3.1-6.19s3.71-4,2.47-4-5.87,1.85-5.87,1.85l2.16-6.8L1236,507.9l1.55-8.65H1232l-6.5,2.78,9.28-9.9-5.88-1.54.31-6.8h-12l-4.64,2.47,3.4-10.2-3.71-4.64h21.33l6.49-3.71,4.33-2.47-3.71-3.71h-2.82s-2.16-3.09-3.09-2.48-4.33,3.71-4.33,3.71l3.09-8.34-12.67,4.23,13-7.73,9.28,1.54h9l5.41-2.78,3.87,2.16h6.8s4-6.49,3.09-6.49-6.8,3.09-6.8,3.09l4.94-11.75h-8.65v-4.63h-10.51l1.23-4.64h-5.87l13.91-9.58-2-2.48,8.81-1.85h9.28s2.78-5.26,1.85-4.95-5.56,0-5.56,0l6.8-7.1h-9l10.51-5.26-2.78-2.78,1.86-4.94-14.25-4.62,13.6,1.85,1.24-7.11,3.71-8.35,4.63-8.34,1.24-12.37,1.24,12.37-1.24,9.58-.93,8.66-1.85,4,1.85.31,10.51-8,3.4-2.17-4.94,7.42-7.73,6.5-1,3.65-3.71,3.4s7.11-1.24,7.42-2.17,6.8-5.56,6.8-5.56l-4.61,8.33-8,3.4.62,7.42,5.25,1.54-.93,2.47,6.19.93,2.78,1.86,4.64,6.18,11.13-4.64-4.33,4.33-5.26,5.57,8.35-.93,10.51-2.17-15.46,6.5,3.4,2.16,7.73,2.78-22.57,2.17-7.72,6.8,7.42-3.71,13,.31,6.18,5.87-8.34-2.78L1297.29,445l-6.8,3.09,11.44.31,10.82,3.71,4.33,3.4,11.43,7.11s-5.56.62-6.18-.31-8-4.32-8-4.32l-11.13-2.79,6.8,3.71,3.71,3.4-7.42-1.23-5.87-1.24,5.57,4.64,2.47,1.24-8.66-.93-5.25.31,4.63,3.09,8.66,8.66,10.2,5.25-8,3.09,5.57,8.35,2.16,5.57s4.33,3.09,8.66,6.8l4.33,3.71,16.38,13.29-.92,4.33,9.58,7.73-16.22-7.12-9.27-.93-7.73,2.16-8,1.24h-5.25l2.47,4.33,4.64,5,5.25,4.63v5.88l9,11.13,8.35,5.25.61,3.09-10.51-4.32-6.8-1.86-4-1.54,6.8,7.11,10.12,5.88L1324.13,573l-8-3.71-5.27-2.13-5-.3,6.49,8.35,7.73,9.27,7.42,7.42,5.56,13.61,3.71,10.2,8.35,5.25-6.46,1.9,1.23,4.64,3.4,4.33,5.88,13.91,2.78,5.87-11.44-5.56-5.87-4.95-5.26-8.35,4.33,11.13,5.26,12.06,2.47,8,7.73,3.71,3.71,7.73,6.8,11.75,3.09,2.47s-7.11-.93-8-1.24-9.58-4.64-9.58-4.64-5-.61-5.88-.61-9.89-4-9.89-4l7.11,6.8,7.73,7.73,7.11,11.13L1360,715.9l2.78,10.82,5,12.36s-5-2.78-5.88-2.78-3.4,2.78-3.4,2.78l-7.73-4.63,3.71,8.34-3.09,2.79Z"/><path class="cls-9" d="M357,750.13S334.75,746,331.27,746,309.69,748,309.69,748,309,746,300,748s-13.23-2.09-14.62,2.09-5.57,7.66-5.57,7.66-18.09-4.18-23.66-5.92-23,0-23,0-1.4-8-6.27-5.92-24.36,10.44-32,11.84l-7.65,1.39H175.35v-6.79h-3.49l2.44-9.92h-5.92l6.62-8,8.36-5.61,1-8-4.17,5.56-2.44-3.48-2.78,7-4.11-9.08L168.42,725l-2.81-4.17-2.44,6.26-3.48-6.26-7,5.91v-5.91h-10.4s8-5.92,9-6.62,7.66-16,7.66-16,7-10.79,15.31-11.13l8.7-3.48s-1.39-5.22,10.44-10.79l6.61-7.66-2.43-4.52h-5.52l-4.52,3.48-.35-3.48-4.53,2.08-5.57-2.08-7.3,10.09-1.74-10.09-11.49,10.12-2.44,7-.69-12.18-5.92,8-2.43,3.48,1.39-9.74L155.86,652,151,648.86l7.66-3.48,4.87-4.52h2.79l5.56-7.66H184.4l9-15H190L198.32,605l-5.91,3.89-.7-3.83-3.85,2.41v-7.66H183l-6.61,7.31-1,2.44-.69-7-4.87,1.39-5.22,5.22s.34-4.87-.7-4.87-8,6.26-8,6.26l.35-5.22-9.39,5.26,10.78-10.79,6.27-2.09s.7-5.22,2.09-5.57a38.48,38.48,0,0,1,6.26,0l6.27-6.61h6.26l8.35-4.87,4.18-2.78s-4.52-3.14-5.57-2.79-3.83,3.13-3.83,3.13L186.18,575l-3.48,2.12-4.87-5.22-6.61,4.18,11.13-15.32h-4.87l17.75-18.44,9-6.43,3.13-8.89,4.88-2.43-6.61-1.75s.7-3.83-.69-4.18-7,3.13-7,3.13.34-3.18-1.05-3.15-7.65,3.5-7.65,3.5L202.46,511l8.7-3.48,3.83-5.91,7.31-3.48,7.31-4.88,3.48-7s4.17-4.52,2.78-4.52-6.61,2.09-6.61,2.09l2.43-7.66L225.43,479l1.74-9.75h-6.26l-7.31,3.13L224,461.22l-6.61-1.74.43-7.62H204.24L199,454.64l3.84-11.47L198.68,438h24l7.3-4.18,4.88-2.78-4.17-4.13h-3.13s-2.44-3.48-3.48-2.78-4.87,4.17-4.87,4.17l3.48-9.39-14.27,4.87L223,415l10.44,1.74h10.1l6.09-3.13,4.35,2.43h7.66s4.52-7.31,3.48-7.31-7.66,3.48-7.66,3.48L263.06,399h-9.75V393.8H241.48l1.39-5.22h-6.61l15.66-10.79L249.66,375l9.92-2.09H270s3.13-5.92,2.09-5.57-6.27,0-6.27,0l7.66-8H263.41l11.83-5.91-3.13-3.13,2.08-5.57-16-5.22,15.32,2.08,1.39-8,4.18-9.4,5.22-9.39,1.38-13.95,1.39,13.92-1.39,10.79-1,9.74-2.09,4.52,2.09.35,11.83-9.05,3.83-2.43-5.57,8.35-8.7,7.31L285,348.54l-4.16,3.79s8-1.39,8.35-2.43,7.66-6.27,7.66-6.27l-5.22,9.4-9.1,3.83.69,8.35,5.92,1.74-1,2.78,7,1,3.13,2.09,5.22,7L316,374.65l-4.87,4.87-5.92,6.26,9.4-1,11.83-2.44-17.4,7.31,3.83,2.44,8.7,3.13-25.41,2.44-8.7,7.65,8.35-4.17,14.62.35,7,6.61-9.4-3.13-13.57,3.48-7.78,3.41,12.88.34,12.18,4.18,4.87,3.83,12.88,8s-6.26.7-7-.34-9-4.88-9-4.88L301,419.86l7.66,4.18,4.21,3.82-8.36-1.4-6.64-1.39,6.26,5.22,2.79,1.39-9.75-1-5.91.35,5.22,3.48,9.74,9.74,11.49,5.92-9,3.48,6.26,9.4,2.44,6.26s4.87,3.48,9.74,7.66l4.88,4.17,18.44,15-1,4.87,10.79,8.7-18.1-8-10.44-1-8.7,2.44-9.15,1.27h-5.92l2.79,4.87,5.23,5.57,5.91,5.22v6.62L332,539.22l9.39,5.92.7,3.48-11.83-4.87-7.66-2.09-4.52-1.74,7.65,8,11.49,6.61-12.53-2.09-9.05-4.18-5.92-2.4-5.57-.35,7.31,9.4,8.7,10.44,8.36,8.35L334.75,589l4.18,11.49,9.39,5.91L341,608.5l1.39,5.22,3.83,4.87,6.62,15.65,3.13,6.61-12.88-6.27L336.5,629l-5.92-9.4,4.88,12.53,5.91,13.57,2.79,9,8.7,4.18,4.17,8.7,7.65,13.26,3.48,2.79s-8-1-9.05-1.4S348.32,677,348.32,677s-5.56-.69-6.61-.69-11.14-4.48-11.14-4.48l8,7.66,8.7,8.7,8,12.53L365,713.28l3.13,12.18,5.57,13.92s-5.57-3.13-6.61-3.13-3.83,3.13-3.83,3.13l-8.7-5.22,4.18,9.4-3.49,3.13Z"/><path class="cls-10" d="M369.17,271.5v19.36h-5.58l2.79,3.61s-4.44,2.62-2.79,2.62h5.58V302l-4.6,3.94-7.22,6.23-11.49,3.3H361l5.25,2.62.33,5.91-7.22,4.27h5.91l1,7.22-2,7.88H352.75s-7.55-3-8.53-4.6-11.82-8.21-11.82-8.21-5.58,2.63-4.27,3.62-2,10.83-.2,10.5,9.4-2,9.4-2l-3,5.91s4.6,2.63,6.57,3,9.56,3.25,9.56,3.25v5.25s-12.15-3-13.13-3.61-8.21-3.29-8.21-3.29l-6.57,4.6-7.22,5.25L308.77,368h9.84a41.83,41.83,0,0,0,6.9,0,56.51,56.51,0,0,1,8.53.14l-8.53,8.73h-2.3l5.58,2-3.93,4.9L315,391.31h4.6l12.8,4.6,3.94,1.64-11.49,10.18-14.11,14.44,11.49-3.94,2,3.94,8.87-9.85s-4.6,10.18-3.28,9.85,9.19-3.94,9.19-3.94l-8.87,10.5L320,441.54l-5.91,4.59H320s-8.21,9.52-7.22,9.19,6.89-3.61,6.89-3.61-2,6.9-1,5.25,4.93-9.84,4.93-9.84,0,9.19,1,7.22,4.93-7.88,4.93-7.88,1.64,3,2.29,1.64a48.25,48.25,0,0,1,3.62-4.92l5.58-4.6-2,5.58-7.55,7.22-7.88,5.84L316,464.86l-7.22,10.51V480c0-.65,4.26-5.25,4.26-5.25l1.32,1.64s4.59-7.22,4.26-5.25S316,477,317.3,476.35s7.22-10.18,7.22-10.18-.65,8.87-.33,7.23,2.3-8.21,2.3-8.21l3,4.6,3.28-5.26s-.66,5.58.33,4.6,2.95-3.61,2.95-3.61L326.53,477l-3.32,6.85-6.24,4-3.61,4.92-.33,3.29-2.62,2a10,10,0,0,1,3.28,0c1.31.32,5.91-3.61,5.91-3.61s-.33,4.63.66,3.63,5.25-6.92,5.25-6.92L321.57,503,318,506.27h5.58l-.33,3.94s2.3,5.91,3.28,4.6,5.58-10.18,5.58-10.18L342.25,500s5.58,11.48,6.89,9.51,12.15-9.51,12.48-10.5,4.92-10.83,5.58-9.52S374.75,503,374.75,503l12.47-13.79,19.7-1-5.26-13.84s3.94-5.58,5.26-3.61,9.19,8.54,9.19,8.54l-4.93-20,3.29,1.64v-3l1.64,7.22s1.31-6.56,2-5.25,1.31,7.88,1.64,6.56a20.72,20.72,0,0,0,0-4.59l4.26,4.26,2.3-.65-9.84-16.09L400.05,431l-4.95-12.15L402,428.7s-1.64-5.58-.33-5.25,4.93,7.22,4.93,7.22l1-4.59,2.63,7.88s1.31-6.24,2.3-4.6,3,7.88,3,7.88l3.28-4.27,2.3,2.3-15.76-24-9.84-10.18-8.21-3.94L383.63,386l3.28,3.61.33-3.61,2.3,3.28.65-5.91,5.91,7.55s-3-6.89-1.64-5.9,7.22,3.93,7.22,3.93l-4.59-6.56-14.77-7.88-8.87-4.92h5.26l.32-4.27,3,3.94v-3.94l3.61,4.27-11.82-15.1,3-4.6,5.58-4.27h6.89l1.31-2.29-8.2-2-7.88.33-4.27.32.33-6.23L375.5,338l-4.64-6.17-1.64-5.58,6.89,5.25-6.57-11.82,2.3-21.33Z"/><path class="cls-11" d="M525.46,283.4l-6.84,142.46s321.12,13,324.54,14.37,86.27-26.7,86.27-26.7l-9.57-111.67h34.92l-37-165.69L875.34,236.86l-406,34.23,5.47,17.12Z"/><path d="M525.46,283.4l-6.18,142.46-.64-.7,103.75,3.93,103.73,4.13c34.58,1.43,69.16,2.79,103.74,4.58l6.49.37,3.25.21,1.63.12.82.06a6.87,6.87,0,0,1,1.08.16l.53.09h.47c.47-.06,1-.17,1.49-.27,1-.22,2.06-.48,3.09-.75,2.07-.53,4.14-1.12,6.21-1.72,8.28-2.41,16.52-5,24.76-7.65q24.68-7.95,49.25-16.3l-1.07,1.5L918.18,302l-.16-1.8h36.76l-1.65,2L916.24,136.53l3,.28L876.72,237.42l-.35.84-.9.07L672.42,255,570.86,263.3l-101.54,8.13.31-.47L475,288.1l-.29-.19Zm0,0-50.6,5.07h-.22l-.08-.22L469,271.15l-.14-.42h.45l101.47-9,101.44-8.87,203-17.53-1.26.91,42.37-100.69,1.93-4.59,1.09,4.86L956.44,301.5l.46,2.06h-37l1.65-1.8L931,413.38l.11,1.22L930,415q-24.62,8.28-49.34,16.23c-8.25,2.63-16.51,5.23-24.85,7.64-2.08.6-4.18,1.19-6.29,1.73-1.07.27-2.13.54-3.22.77-.56.11-1.1.23-1.71.31h-.47a2.71,2.71,0,0,1-.57,0,1.34,1.34,0,0,1-.4,0l-.3-.06-.21-.06h-.27l-.53-.06-.8-.06-1.59-.12-3.23-.21-6.46-.38c-34.54-1.8-69.12-3.38-103.69-5l-207.42-9.27h-.68v-.67Z"/><path d="M535.16,283.4c.21,11.93.09,23.85-.16,35.77-.09,5.95-.3,11.91-.45,17.86l-.69,17.83L533,372.72c-.34,5.94-.62,11.89-1,17.84-.75,11.89-1.62,23.78-2.82,35.66-.22-11.94-.1-23.86.15-35.77.09-6,.3-11.91.46-17.87l.65-17.86.84-17.85c.34-6,.62-11.9,1-17.85C533.09,307.16,534,295.27,535.16,283.4Z"/><path class="cls-12" d="M469.32,265.6V243a103.44,103.44,0,0,1,6.84-8.22l19.18-11.64,18.52-10.28s12.33-6.84,15.07-9.58c0,0,6.16-11,21.91-17.12,0,0,24.65-11.64,24.65-15.06,0,0,13.69-9.59,38.34-7.53h33.55l55.46-8.9L822,134.12l56.14-15.74s17.8-8.91,26,2a8.73,8.73,0,0,0,4.11,4.79L918.5,132,875.34,236.86l-406,34.23Z"/><path d="M469.32,265.6V243h0c1.08-1.42,2.18-2.83,3.3-4.21s2.29-2.74,3.54-4h0l13.12-8c2.2-1.32,4.37-2.68,6.58-4l6.71-3.74c4.47-2.51,9-5,13.4-7.52,2.21-1.28,4.41-2.59,6.58-3.95,1.08-.68,2.16-1.37,3.21-2.09a22.51,22.51,0,0,0,3-2.33h0a41.15,41.15,0,0,1,9.82-10.48,54.38,54.38,0,0,1,12.55-7c4.3-2.09,8.56-4.26,12.74-6.57C566,178,568,176.75,570,175.46c1-.65,2-1.32,2.91-2,.46-.36.89-.74,1.31-1.14a2.48,2.48,0,0,0,.78-1.18v-.27l.18-.11a42.81,42.81,0,0,1,9.06-4.32,67.64,67.64,0,0,1,9.6-2.58c1.65-.25,3.29-.58,5-.72.83-.08,1.65-.19,2.49-.25l2.49-.15c.84-.06,1.67-.08,2.51-.07h2.51c1.67,0,3.33.15,5,.22h-.06l33.55-.23h-.15l43.66-7.35,10.91-1.83,10.9-2,21.78-3.91L778,139.75,821.6,132l-.22.05,56.1-15.94-.41.16a31.82,31.82,0,0,1,3.49-1.41c1.17-.42,2.36-.8,3.57-1.11a31.34,31.34,0,0,1,7.52-1.1,19.77,19.77,0,0,1,7.83,1.34,15.32,15.32,0,0,1,6.5,5l.4.84h0l.07.16a2.26,2.26,0,0,0,.17.35,6.46,6.46,0,0,0,.44.71,8.22,8.22,0,0,0,1.22,1.28,19.13,19.13,0,0,0,1.67,1.16l2,1.3,7.86,5.23,1.63,1.08-.75,1.81-21.61,52.36-21.72,52.32-.5,1.27-1.32.1c-33.84,2.76-67.7,5.33-101.55,8l-101.59,7.9c-33.85,2.63-67.71,5.18-101.56,7.94s-67.68,5.53-101.52,8.32h0Zm0,0v5.47h0c33.83-2.91,67.66-5.77,101.48-8.8s67.64-6.1,101.46-9.17l101.44-9.24c33.82-3.09,67.63-6.21,101.46-9.16L873.33,236l21.42-52.44,21.53-52.4.88,2.89-7.78-5.2-1.94-1.3a23.53,23.53,0,0,1-2.17-1.53,12.23,12.23,0,0,1-2-2.13,9.44,9.44,0,0,1-.8-1.28c-.12-.22-.23-.45-.34-.7l-.15-.39a3.13,3.13,0,0,1-.16-.52l.4.84a11.87,11.87,0,0,0-2-2.07,11.49,11.49,0,0,0-2.49-1.45,15,15,0,0,0-6-1,26.76,26.76,0,0,0-6.42.93,35,35,0,0,0-6.18,2.21l-.23.11-.18.05-56.2,15.55h-.21l-43.67,7.29L735,150.71l-21.84,3.61-10.92,1.79-11,1.75-43.76,6.72h-.15l-33.55-.23h-.06c-1.64-.09-3.28-.23-4.91-.29H603.9l-2.46.1c-.82.05-1.63.15-2.45.22-1.64.12-3.25.41-4.88.64a65.06,65.06,0,0,0-9.52,2.41,42,42,0,0,0-8.88,4.08l.2-.38a2.37,2.37,0,0,1-.43,1.08,7.43,7.43,0,0,1-.64.73,13.53,13.53,0,0,1-1.41,1.2c-1,.74-2,1.4-3,2-2,1.28-4.14,2.45-6.24,3.6-4.22,2.29-8.51,4.43-12.84,6.49a53.71,53.71,0,0,0-12.5,6.85,40.93,40.93,0,0,0-9.8,10.28h0a23.42,23.42,0,0,1-3.08,2.35c-1.06.72-2.15,1.4-3.24,2.08-2.18,1.34-4.4,2.63-6.62,3.9l-13.44,7.44L496,222.85c-2.22,1.29-4.39,2.64-6.59,4l-13.14,8h0c-1.26,1.26-2.41,2.63-3.55,4s-2.23,2.78-3.31,4.2h0Z"/><polygon class="cls-13" points="611.05 284.77 611.05 360.77 577.5 360.77 577.5 288.19 611.05 284.77"/><path d="M611.05,284.77l1,37.57c.17,6.34.26,12.75.38,19.16s.15,12.84.22,19.27v1.55h-1.59c-5.59.06-11.18.08-16.78.09l-16.77,0H575.8v-1.71l.06-18.15c0-6,.08-12.09.13-18.14s.11-12.1.21-18.14.19-12.1.33-18.15v-.91l.86-.07c2.86-.22,5.72-.47,8.56-.66l8.49-.59Zm0,0-17,2.23-8.19,1.12c-2.75.38-5.48.71-8.21,1.05l.88-1q.21,9.07.32,18.15t.22,18.14c0,6.05.13,12.1.13,18.14l.06,18.15L577.55,359h16.77c5.6,0,11.19,0,16.78.1l-1.57,1.57c.07-6.24.09-12.47.22-18.73s.21-12.52.38-18.84Z"/><polygon class="cls-13" points="722.65 276.55 764.51 273.93 767.16 360.77 722.65 360.77 722.65 276.55"/><path d="M722.65,276.55l20.69-1.82c7-.62,14-1.26,21.11-1.8l1-.08v1l1,21.7c.33,7.24.61,14.47.88,21.7l.78,21.71.72,21.71.06,1.76h-1.73l-22.25-.05c-7.42,0-14.84-.08-22.25-.13h-1.54v-1.52q.06-10.66.23-21.29l.35-21.19Zm0,0,1,42.48L724,340q.18,10.44.23,20.82l-1.52-1.53c7.41-.05,14.83-.13,22.25-.13l22.25-.05-1.76,1.8-.59-21.75-.54-21.71q-.26-10.86-.45-21.72L763.52,274l1.07,1c-6.86.33-13.76.57-20.75.82Z"/><polygon class="cls-13" points="874.31 284.43 905.35 298.12 909.46 372.52 878.42 372.52 874.31 284.43"/><path d="M874.32,284.43c5,2.09,10.21,4.19,15.47,6.32s10.61,4.24,16,6.5l.52.22v.6l1.35,18.58,1.2,18.59,1.22,18.62,1.08,18.6.1,1.78H893.94l-15.52-.05h-1.56l-.05-1.56L876,350.25,875.36,328Zm0,0,1.54,22.43,1.56,22.1,1.44,21.81,1.23,21.68-1.67-1.59h31l-1.69,1.79-1-18.61-.88-18.61-.81-18.61-.7-18.62.56.81c-5-2.3-10-4.75-15.09-7.19S879.62,286.86,874.32,284.43Z"/><path d="M525.46,283.4c14.79-1.57,29.6-3,44.4-4.41s29.61-2.8,44.42-4.17l44.43-4,44.45-3.76c29.64-2.41,59.28-4.82,88.94-7.06l22.23-1.7,22.25-1.62,22.28-1.6,22.26-1.54-1.55,1.16,10.29-25.83,10.38-25.79,10.48-25.74L916,164.51l5.33-12.84-4.74,13.09-4.7,13.1L902.33,204,892.69,230,883,256l-.39,1-1.16.11-22.22,2L837,261.08,814.74,263l-22.23,1.8c-29.64,2.43-59.29,4.68-88.94,6.95L659.08,275,614.58,278c-14.84,1-29.68,2-44.53,2.84S540.32,282.64,525.46,283.4Z"/><path d="M829.21,259.48c.55,7.53.89,15,1.34,22.58s.71,15.05,1,22.58.52,15.06.78,22.59l.6,22.59.42,22.6c.07,7.54.2,15.07.21,22.6s0,15.07,0,22.61-.12,15.07-.34,22.61c-.55-7.52-.89-15.05-1.34-22.57s-.71-15.06-1-22.59-.52-15.06-.79-22.59l-.58-22.63-.41-22.6c-.07-7.53-.2-15.06-.21-22.6s0-15.07,0-22.6S829,267,829.21,259.48Z"/><path d="M839.74,259.48c.46,7.53.69,15.06,1,22.58s.52,15.06.71,22.59.33,15.06.5,22.58l.3,22.59.13,22.59c0,7.53,0,15.06-.07,22.59s-.16,15.07-.28,22.6-.31,15.06-.63,22.59c-.46-7.52-.7-15.05-1-22.58s-.53-15.05-.71-22.58-.34-15.06-.5-22.59l-.28-22.58-.12-22.58c0-7.54,0-15.07.08-22.6s.15-15.06.28-22.59S839.42,267,839.74,259.48Z"/><path d="M852.34,438.25c-.59-7.43-1-14.88-1.46-22.32s-.79-14.89-1.11-22.33-.61-14.89-.91-22.34l-.71-22.34-.53-22.35c-.11-7.45-.29-14.9-.33-22.36s-.12-14.9-.13-22.36,0-14.91.22-22.37c.6,7.44,1,14.89,1.46,22.33s.8,14.88,1.12,22.33.6,14.89.9,22.34l.71,22.34.53,22.35c.11,7.45.28,14.9.33,22.35s.12,14.91.12,22.36S852.52,430.79,852.34,438.25Z"/><path d="M895.86,217.53c2.45,5.58,4.64,11.25,6.79,16.93s4.16,11.4,6.11,17.14c1,2.88,1.94,5.75,2.87,8.64l2.76,8.67,2.64,8.71c.82,2.92,1.7,5.82,2.48,8.76v.23c.11,2.54.2,5.08.25,7.63,0,1.27,0,2.55.07,3.82s0,2.55,0,3.82c-.23-1.25-.48-2.5-.69-3.76s-.43-2.51-.62-3.77c-.4-2.51-.77-5-1.12-7.55l.05.24c-1.11-2.83-2.11-5.69-3.17-8.54l-3-8.58-2.9-8.62c-1-2.88-1.86-5.78-2.79-8.66q-2.75-8.69-5.22-17.44C898.73,229.35,897.15,223.48,895.86,217.53Z"/><path d="M594.27,289.3c.83,5.71,1.26,11.41,1.56,17.12s.44,11.41.44,17.11-.12,11.41-.44,17.12-.72,11.41-1.56,17.11c-.83-5.7-1.26-11.41-1.56-17.11s-.43-11.41-.44-17.12.13-11.41.45-17.11S593.45,295,594.27,289.3Z"/><path d="M744.27,279.66c.88,6.25,1.37,12.51,1.72,18.78s.55,12.52.6,18.78,0,12.53-.28,18.8-.62,12.53-1.4,18.8c-.89-6.25-1.38-12.51-1.72-18.78s-.56-12.52-.6-18.78,0-12.53.29-18.8S743.5,285.93,744.27,279.66Z"/><path d="M891.86,296.94c1.15,5.92,1.91,11.86,2.54,17.82s1.09,11.91,1.42,17.87.54,11.94.55,17.93-.07,12-.57,18c-1.16-5.92-1.92-11.87-2.55-17.82s-1.06-11.88-1.39-17.88-.53-11.94-.54-17.92S891.39,303,891.86,296.94Z"/><path class="cls-2" d="M758,321.49"/><path class="cls-2" d="M728.13,324.05"/><polygon points="633.59 431.04 633.59 285.07 693.93 280.94 693.89 433.1 633.59 431.04"/><path class="cls-14" d="M780,636.73s10.67-1,11.67,0,12.66,2.67,12.66,2.67,21.34,3,27.34,0c0,0,3.66-.33,7.33-8,0,0,10,7.67,17.67,9.33a14,14,0,0,1,3,15.67l-6.67,33s-3.67,2.33,0,9c0,0-1.67,3.33,6.33,12l-3,7.33h15s-.66-11-2.66-12l2.66-23.66s6-14,3-15c0,0,4.35-7.67.84-12.67,0,0-5.5-5-3.84-9.33l5.21-23.34L879,609.4a93.49,93.49,0,0,1,3-19.67s5-12.66,4.67-13.66,1.66-18.34-2.34-18.34c0,0-7.66-18-26-23.33a49.42,49.42,0,0,0-30.66,4s-6.67.33-11.67,0c0,0-12.67,2.67-18,2.67h-5.33s-12.67-10.67-27.34-.34a158.65,158.65,0,0,1-13.66,8.34s-15.47,2.83-17.34-4c-1-3.67,8.67-8.67,10-6,0,0,13-4.67,14-14.67l-28,6.67s3.67-10.34,19-14.67l27.34-13.33s8-1.67,12.66-14c0,0,7-15,8.34-25.34,0,0,9.87-11.33,10.93-18.33,0,0,6.73,3,8.07,0,0,0-.67-6-10.34-6,0,0-6.33-20.33-10.33-21,0,0-5-9,3.67,20.33,0,0,1,4-2.34,14.34,0,0-5.33-27.67-9-27.34l-14-25s-2.66-.66-2.16,3.09,7.75,19.5,7.75,19.5l5.75,15.75,2.25,12.5-.75,14.5s-4.75,21-8.25,21.25l-1.75,4.25s-15.25,11.5-28.5,14c0,0,.5-28-4.75-26,0,0-1.75-1.75-.25,5.75l-2,24.5s-7.5,3.25-14.75,7c0,0-7.14,5.79-8.5-1-.25-1.25-4-7.5-2.75-22.5,0,0-1.34-1.75-2.17.58,0,0-5.67,20.5,2,28.5,0,0,4.33,7.33-1.67,6a7.63,7.63,0,0,1-5.16-4.83s-11.59-5.84-11.46-7.84c0,0-14.54-11.83-16.38-11.83,0,0-1.66-3.17-3.16-3l-1,.67-7.5-4.34s-2.84-1.5-4.5-8.5l-4-18.5s8.5-10.33,9.5-12.83c0,0,6.66-1.5,6.66-.67s4.17-2.66.17-5.83l-4.5-.5,5.67-20.83.66-2.84s-1.33-2.83-3.5-.66l-3.83,9-5,14.83-7,10.83L657,438.57l6.85-28.34s.34-4-3.33-1L652,432.07s-1.83,14.33-1.17,17.5,2.67,26.16,2.67,26.16l3,19s-5.33,1.34-11.67-7.33c0,0-3.5-11.17-3.16-15.83,0,0-.17-5-3-.17s2.5,23,5.66,23.5c0,0,3,7.17,13.84,7.5,0,0,6.5,12.83,14.66,15.5a99.23,99.23,0,0,0,10.67,4s3,6.83,12.5,5.33l2.33,4.5a38.07,38.07,0,0,0-14.68-1.87A34.62,34.62,0,0,1,675,529s-1.5-.34-.33,2c0,0,7.83,3.33,7.83,4.5,0,0,7.67,7.83,13.5,5.16a7.36,7.36,0,0,0-.33,7.84l2.5,4.5s.16.5-5.67,9.66l-.83,5.34s1.5,3.16,3.16,1.83c0,0,1,7.33,6.67,4.83,0,0,4,2.17,5.5-.33,0,0,7.17,17.67,9,16.5s6.85,18.37,21.85,19.37a60.4,60.4,0,0,0,8.5,11s5.17,13.34,9.17,13.34l3.5,8.33-2,9-2.5,7.33s-1.33,0,.33,3.67l-4.83,10s-1.5,5-1.17,7.67l.34,2.66s1.33,6.84,0,10l-2.34,12.5-2.66,7.84-1.67,4.16-3.17,6.84s2.67-.5,3.34,0a12.15,12.15,0,0,0,4.83,1c.83-.17,2.5.55,3.33,0s2.67-.19,2.67-1-1.17-6.17-1.17-6.17,0-15.33,3.17-24.83l4.67-12.34,7.33-16s2.17,1.67,2.17,9.5c0,0,5,13.17,4.83,13.84s1.33,18.29,1.33,18.29l-1.66,11,1,3s.16,1.17,1,1.17,4.5-.34,5.16-.34,4.5.17,5,.17,2.67.17,2.67-.33-8.67-35.5-8.67-36,.67-8.34.67-8.34l-1.33-9-.84-11.12-.5-9.84-1.66-6.83A5.37,5.37,0,0,0,780,636.73Z"/><circle class="cls-15" cx="161.97" cy="485.7" r="5.91"/><circle class="cls-15" cx="1296.71" cy="325" r="5.91"/><circle class="cls-15" cx="1326.91" cy="156.05" r="5.91"/><circle class="cls-15" cx="1019.73" cy="372.93" r="5.91" transform="translate(284.95 1172.32) rotate(-67.5)"/><circle class="cls-15" cx="773.06" cy="124" r="5.91"/><circle class="cls-15" cx="418.15" cy="204.89" r="5.91"/><circle class="cls-15" cx="730.25" cy="98.45" r="5.91"/><circle class="cls-15" cx="617.48" cy="29.87" r="5.91"/><circle class="cls-15" cx="46.55" cy="193.02" r="5.91"/><circle class="cls-15" cx="43.86" cy="33.82" r="5.91"/><circle class="cls-15" cx="68.09" cy="253.58" r="5.91" transform="translate(-188.31 310.11) rotate(-87.4)"/><circle class="cls-15" cx="1197.34" cy="192.38" r="5.91"/><circle class="cls-15" cx="1090.23" cy="229" r="5.91"/><circle class="cls-15" cx="457.91" cy="72.51" r="5.91"/><circle class="cls-15" cx="1146.95" cy="293.72" r="5.91"/><circle class="cls-15" cx="370.48" cy="165.69" r="5.91"/><circle class="cls-15" cx="264.44" cy="40.95" r="5.91"/><circle class="cls-15" cx="219.23" cy="592.37" r="5.91"/><circle class="cls-15" cx="493.68" cy="161.95" r="5.91"/><circle class="cls-15" cx="1131.81" cy="649.5" r="5.91"/><circle class="cls-15" cx="66.85" cy="96.62" r="2.95"/><circle class="cls-15" cx="79.52" cy="69.57" r="3.22"/><circle class="cls-15" cx="110.18" cy="85.57" r="3.22"/><circle class="cls-15" cx="39.64" cy="124.24" r="3.22"/><circle class="cls-15" cx="100.97" cy="121.02" r="3.22"/><circle class="cls-15" cx="33.73" cy="70.02" r="3.22"/><circle class="cls-15" cx="370.48" cy="60.42" r="2.95"/><circle class="cls-15" cx="383.14" cy="33.37" r="3.22"/><circle class="cls-15" cx="413.81" cy="49.37" r="3.22"/><circle class="cls-15" cx="343.27" cy="88.03" r="3.22"/><circle class="cls-15" cx="404.6" cy="84.82" r="3.22"/><circle class="cls-15" cx="337.36" cy="33.82" r="3.22"/><circle class="cls-15" cx="136.65" cy="192.74" r="2.95"/><circle class="cls-15" cx="149.32" cy="165.69" r="3.22"/><circle class="cls-15" cx="179.99" cy="181.69" r="3.22"/><circle class="cls-15" cx="109.44" cy="220.36" r="3.22"/><circle class="cls-15" cx="170.78" cy="217.14" r="3.22"/><circle class="cls-15" cx="103.54" cy="166.14" r="3.22"/><circle class="cls-15" cx="975.19" cy="64.33" r="2.95"/><circle class="cls-15" cx="987.86" cy="37.28" r="3.22"/><circle class="cls-15" cx="1018.52" cy="53.28" r="3.22"/><circle class="cls-15" cx="947.98" cy="91.95" r="3.22"/><circle class="cls-15" cx="1009.31" cy="88.73" r="3.22"/><circle class="cls-15" cx="942.07" cy="37.73" r="3.22"/><ellipse class="cls-15" cx="1111.19" cy="54.94" rx="3.04" ry="4.02"/><ellipse class="cls-15" cx="1124.22" cy="18.12" rx="3.31" ry="4.38"/><ellipse class="cls-15" cx="1155.76" cy="39.9" rx="3.31" ry="4.38"/><ellipse class="cls-15" cx="1083.21" cy="92.53" rx="3.31" ry="4.38"/><ellipse class="cls-15" cx="1146.28" cy="88.15" rx="3.31" ry="4.38"/><ellipse class="cls-15" cx="1077.13" cy="18.74" rx="3.31" ry="4.38"/><circle class="cls-15" cx="1276.49" cy="198.17" r="2.95"/><circle class="cls-15" cx="1289.16" cy="171.12" r="3.22"/><circle class="cls-15" cx="1319.82" cy="187.12" r="3.22"/><circle class="cls-15" cx="1249.28" cy="225.78" r="3.22"/><circle class="cls-15" cx="1310.61" cy="222.57" r="3.22"/><circle class="cls-15" cx="1243.37" cy="171.57" r="3.22"/><circle class="cls-15" cx="1298.03" cy="270.79" r="2.95"/><circle class="cls-15" cx="1310.7" cy="243.74" r="3.22"/><circle class="cls-15" cx="1341.37" cy="259.74" r="3.22"/><circle class="cls-15" cx="1270.82" cy="298.41" r="3.22"/><circle class="cls-15" cx="1332.16" cy="295.19" r="3.22"/><circle class="cls-15" cx="1264.92" cy="244.19" r="3.22"/><circle class="cls-15" cx="841.05" cy="60.13" r="2.95"/><circle class="cls-15" cx="853.72" cy="33.08" r="3.22"/><circle class="cls-15" cx="884.38" cy="49.08" r="3.22"/><circle class="cls-15" cx="813.84" cy="87.75" r="3.22"/><circle class="cls-15" cx="875.17" cy="84.53" r="3.22"/><circle class="cls-15" cx="807.93" cy="33.53" r="3.22"/><ellipse class="cls-15" cx="986.22" cy="205.97" rx="2.47" ry="2.77"/><ellipse class="cls-15" cx="996.8" cy="180.6" rx="2.69" ry="3.02"/><ellipse class="cls-15" cx="1022.42" cy="195.61" rx="2.69" ry="3.02"/><ellipse class="cls-15" cx="963.49" cy="231.89" rx="2.69" ry="3.02"/><ellipse class="cls-15" cx="1014.72" cy="228.87" rx="2.69" ry="3.02"/><ellipse class="cls-15" cx="958.56" cy="181.02" rx="2.69" ry="3.02"/><circle class="cls-15" cx="1157.01" cy="449.55" r="2.95"/><circle class="cls-15" cx="1169.68" cy="422.5" r="3.22"/><circle class="cls-15" cx="1200.35" cy="438.5" r="3.22"/><circle class="cls-15" cx="1129.8" cy="477.16" r="3.22"/><circle class="cls-15" cx="1191.14" cy="473.95" r="3.22"/><circle class="cls-15" cx="1123.9" cy="422.95" r="3.22"/><circle class="cls-15" cx="1305.59" cy="470.42" r="2.95"/><circle class="cls-15" cx="1318.26" cy="443.37" r="3.22"/><circle class="cls-15" cx="1348.93" cy="459.37" r="3.22"/><circle class="cls-15" cx="1278.38" cy="498.04" r="3.22"/><circle class="cls-15" cx="1339.72" cy="494.82" r="3.22"/><circle class="cls-15" cx="1272.48" cy="443.82" r="3.22"/><circle class="cls-15" cx="1287.26" cy="655.12" r="2.95"/><circle class="cls-15" cx="1299.93" cy="628.07" r="3.22"/><circle class="cls-15" cx="1330.6" cy="644.07" r="3.22"/><circle class="cls-15" cx="1260.05" cy="682.74" r="3.22"/><circle class="cls-15" cx="1321.38" cy="679.52" r="3.22"/><circle class="cls-15" cx="1254.15" cy="628.52" r="3.22"/><circle class="cls-15" cx="524.1" cy="84.59" r="2.95"/><circle class="cls-15" cx="536.77" cy="57.54" r="3.22"/><circle class="cls-15" cx="567.44" cy="73.54" r="3.22"/><circle class="cls-15" cx="496.89" cy="112.21" r="3.22"/><circle class="cls-15" cx="558.23" cy="109" r="3.22"/><circle class="cls-15" cx="490.99" cy="58" r="3.22"/><circle class="cls-15" cx="1151.3" cy="577.5" r="2.95"/><circle class="cls-15" cx="1163.97" cy="550.45" r="3.22"/><circle class="cls-15" cx="1194.63" cy="566.45" r="3.22"/><circle class="cls-15" cx="1124.09" cy="605.12" r="3.22"/><circle class="cls-15" cx="1185.42" cy="601.9" r="3.22"/><circle class="cls-15" cx="1118.18" cy="550.9" r="3.22"/><circle class="cls-15" cx="1189.52" cy="378.55" r="2.95"/><circle class="cls-15" cx="1202.19" cy="351.5" r="3.22"/><circle class="cls-15" cx="1232.86" cy="367.5" r="3.22"/><circle class="cls-15" cx="1162.31" cy="406.17" r="3.22"/><circle class="cls-15" cx="1223.65" cy="402.95" r="3.22"/><circle class="cls-15" cx="1156.41" cy="351.95" r="3.22"/><circle class="cls-15" cx="647.38" cy="96.9" r="2.95"/><circle class="cls-15" cx="660.05" cy="69.85" r="3.22"/><circle class="cls-15" cx="690.71" cy="85.85" r="3.22"/><circle class="cls-15" cx="620.17" cy="124.52" r="3.22"/><circle class="cls-15" cx="681.5" cy="121.31" r="3.22"/><circle class="cls-15" cx="614.26" cy="70.31" r="3.22"/><circle class="cls-15" cx="1017.15" cy="279.37" r="2.95"/><circle class="cls-15" cx="1029.82" cy="252.32" r="3.22"/><circle class="cls-15" cx="1060.49" cy="268.32" r="3.22"/><circle class="cls-15" cx="989.94" cy="306.99" r="3.22"/><circle class="cls-15" cx="1051.28" cy="303.78" r="3.22"/><circle class="cls-15" cx="984.04" cy="252.78" r="3.22"/><circle class="cls-15" cx="706.93" cy="34.23" r="2.95"/><circle class="cls-15" cx="719.6" cy="7.19" r="3.22"/><circle class="cls-15" cx="750.26" cy="23.19" r="3.22"/><circle class="cls-15" cx="679.72" cy="61.85" r="3.22"/><circle class="cls-15" cx="741.05" cy="58.64" r="3.22"/><circle class="cls-15" cx="673.81" cy="7.64" r="3.22"/><circle class="cls-15" cx="192.39" cy="392.93" r="2.95"/><circle class="cls-15" cx="205.06" cy="365.88" r="3.22"/><circle class="cls-15" cx="235.73" cy="381.88" r="3.22"/><circle class="cls-15" cx="165.18" cy="420.55" r="3.22"/><circle class="cls-15" cx="226.52" cy="417.33" r="3.22"/><circle class="cls-15" cx="159.28" cy="366.33" r="3.22"/><ellipse class="cls-15" cx="248.75" cy="110.05" rx="2.28" ry="3.09"/><ellipse class="cls-15" cx="258.54" cy="81.78" rx="2.49" ry="3.36"/><ellipse class="cls-15" cx="282.24" cy="98.5" rx="2.49" ry="3.36"/><ellipse class="cls-15" cx="227.72" cy="138.92" rx="2.49" ry="3.36"/><ellipse class="cls-15" cx="275.12" cy="135.56" rx="2.49" ry="3.36"/><ellipse class="cls-15" cx="223.15" cy="82.25" rx="2.49" ry="3.36"/><ellipse class="cls-15" cx="162.59" cy="61.58" rx="3.35" ry="5"/><ellipse class="cls-15" cx="176.99" cy="15.77" rx="3.65" ry="5.45"/><ellipse class="cls-15" cx="211.83" cy="42.87" rx="3.65" ry="5.45"/><ellipse class="cls-15" cx="131.68" cy="108.36" rx="3.65" ry="5.45"/><ellipse class="cls-15" cx="201.36" cy="102.91" rx="3.65" ry="5.45"/><ellipse class="cls-15" cx="124.97" cy="16.53" rx="3.65" ry="5.45"/><circle class="cls-15" cx="220.67" cy="287.55" r="2.95"/><circle class="cls-15" cx="233.34" cy="260.5" r="3.22"/><circle class="cls-15" cx="264" cy="276.5" r="3.22"/><circle class="cls-15" cx="193.46" cy="315.16" r="3.22"/><circle class="cls-15" cx="254.79" cy="311.95" r="3.22" transform="translate(-93.94 513.48) rotate(-80.78)"/><circle class="cls-15" cx="187.55" cy="260.95" r="3.22"/><circle class="cls-15" cx="294.34" cy="365.59" r="2.95"/><circle class="cls-15" cx="307.01" cy="338.55" r="3.22"/><circle class="cls-15" cx="337.67" cy="354.55" r="3.22"/><circle class="cls-15" cx="267.13" cy="393.21" r="3.22"/><circle class="cls-15" cx="328.46" cy="390" r="3.22"/><circle class="cls-15" cx="261.22" cy="339" r="3.22"/><circle class="cls-15" cx="308.64" cy="222.64" r="2.95"/><circle class="cls-15" cx="321.31" cy="195.59" r="3.22"/><circle class="cls-15" cx="351.97" cy="211.59" r="3.22"/><circle class="cls-15" cx="281.43" cy="250.26" r="3.22"/><circle class="cls-15" cx="342.76" cy="247.04" r="3.22"/><circle class="cls-15" cx="275.52" cy="196.04" r="3.22"/><circle class="cls-15" cx="57.87" cy="328.19" r="2.95"/><circle class="cls-15" cx="70.54" cy="301.14" r="3.22"/><circle class="cls-15" cx="101.21" cy="317.14" r="3.22"/><circle class="cls-15" cx="30.67" cy="355.81" r="3.22"/><circle class="cls-15" cx="92" cy="352.59" r="3.22"/><circle class="cls-15" cx="24.76" cy="301.59" r="3.22"/><circle class="cls-15" cx="71.96" cy="618" r="2.95"/><circle class="cls-15" cx="84.63" cy="590.95" r="3.22"/><circle class="cls-15" cx="115.29" cy="606.95" r="3.22"/><circle class="cls-15" cx="44.75" cy="645.62" r="3.22"/><circle class="cls-15" cx="106.08" cy="642.4" r="3.22"/><circle class="cls-15" cx="38.84" cy="591.4" r="3.22"/><circle class="cls-15" cx="374.82" cy="276.21" r="2.95"/><circle class="cls-15" cx="387.49" cy="249.16" r="3.22"/><circle class="cls-15" cx="418.15" cy="265.16" r="3.22"/><circle class="cls-15" cx="347.61" cy="303.83" r="3.22"/><circle class="cls-15" cx="408.94" cy="300.61" r="3.22"/><circle class="cls-15" cx="341.7" cy="249.61" r="3.22"/><circle class="cls-15" cx="159.93" cy="553.09" r="2.95"/><circle class="cls-15" cx="172.6" cy="526.05" r="3.22"/><circle class="cls-15" cx="203.26" cy="542.05" r="3.22"/><circle class="cls-15" cx="132.72" cy="580.71" r="3.22"/><circle class="cls-15" cx="194.05" cy="577.5" r="3.22"/><circle class="cls-15" cx="126.81" cy="526.5" r="3.22"/><circle class="cls-15" cx="73.76" cy="444.39" r="2.95"/><circle class="cls-15" cx="86.43" cy="417.35" r="3.22"/><circle class="cls-15" cx="117.09" cy="433.35" r="3.22"/><circle class="cls-15" cx="46.55" cy="472.01" r="3.22"/><circle class="cls-15" cx="107.88" cy="468.8" r="3.22"/><circle class="cls-15" cx="40.64" cy="417.8" r="3.22"/><circle class="cls-15" cx="1200.3" cy="281.1" r="2.95"/><circle class="cls-15" cx="1212.96" cy="254.06" r="3.22"/><circle class="cls-15" cx="1243.63" cy="270.06" r="3.22"/><circle class="cls-15" cx="1173.09" cy="308.72" r="3.22"/><circle class="cls-15" cx="1234.42" cy="305.51" r="3.22"/><circle class="cls-15" cx="1167.18" cy="254.51" r="3.22"/><circle class="cls-15" cx="1004.2" cy="140.55" r="2.95"/><circle class="cls-15" cx="1016.87" cy="113.5" r="3.22"/><circle class="cls-15" cx="1047.54" cy="129.5" r="3.22"/><circle class="cls-15" cx="976.99" cy="168.17" r="3.22"/><circle class="cls-15" cx="1038.33" cy="164.95" r="3.22"/><circle class="cls-15" cx="971.09" cy="113.95" r="3.22"/><circle class="cls-15" cx="1298.03" cy="553.83" r="2.95"/><circle class="cls-15" cx="1310.7" cy="526.79" r="3.22"/><circle class="cls-15" cx="1341.37" cy="542.79" r="3.22"/><circle class="cls-15" cx="1270.82" cy="581.45" r="3.22"/><circle class="cls-15" cx="1332.16" cy="578.24" r="3.22"/><circle class="cls-15" cx="1264.92" cy="527.24" r="3.22"/><circle class="cls-15" cx="1300.47" cy="383.4" r="2.8"/><circle class="cls-15" cx="1312.48" cy="357.77" r="3.05"/><circle class="cls-15" cx="1341.54" cy="372.93" r="3.05"/><circle class="cls-15" cx="1274.69" cy="409.57" r="3.05"/><circle class="cls-15" cx="1332.81" cy="406.52" r="3.05"/><circle class="cls-15" cx="1269.09" cy="358.2" r="3.05"/><circle class="cls-15" cx="1093.18" cy="177.88" r="2.95"/><circle class="cls-15" cx="1105.85" cy="150.83" r="3.22"/><circle class="cls-15" cx="1136.51" cy="166.83" r="3.22"/><circle class="cls-15" cx="1065.97" cy="205.5" r="3.22"/><circle class="cls-15" cx="1127.3" cy="202.29" r="3.22"/><circle class="cls-15" cx="1060.06" cy="151.29" r="3.22"/><circle class="cls-15" cx="168.88" cy="677.55" r="2.95"/><circle class="cls-15" cx="181.55" cy="650.5" r="3.22"/><circle class="cls-15" cx="212.22" cy="666.5" r="3.22"/><circle class="cls-15" cx="141.67" cy="705.17" r="3.22"/><circle class="cls-15" cx="203.01" cy="701.95" r="3.22"/><circle class="cls-15" cx="135.77" cy="650.95" r="3.22"/><circle class="cls-15" cx="1020.53" cy="506.54" r="2.95"/><circle class="cls-15" cx="1033.19" cy="479.49" r="3.22"/><circle class="cls-15" cx="1063.86" cy="495.49" r="3.22"/><circle class="cls-15" cx="993.32" cy="534.16" r="3.22"/><circle class="cls-15" cx="1054.65" cy="530.94" r="3.22"/><circle class="cls-15" cx="987.41" cy="479.94" r="3.22"/><path class="cls-15" d="M1025.93,682.72a3,3,0,1,1-3,2.95A2.95,2.95,0,0,1,1025.93,682.72Z"/><circle class="cls-15" cx="1038.59" cy="658.62" r="3.22"/><circle class="cls-15" cx="1069.26" cy="674.62" r="3.22"/><circle class="cls-15" cx="998.72" cy="713.29" r="3.22"/><circle class="cls-15" cx="1060.05" cy="710.07" r="3.22"/><circle class="cls-15" cx="992.81" cy="659.07" r="3.22"/><circle class="cls-15" cx="1088.1" cy="572.59" r="2.95"/><circle class="cls-15" cx="1100.77" cy="545.54" r="3.22"/><circle class="cls-15" cx="1131.44" cy="561.54" r="3.22"/><circle class="cls-15" cx="1060.89" cy="600.21" r="3.22"/><circle class="cls-15" cx="1122.23" cy="597" r="3.22"/><circle class="cls-15" cx="1054.99" cy="546" r="3.22"/><circle class="cls-15" cx="283.53" cy="462" r="2.95"/><circle class="cls-15" cx="296.2" cy="434.95" r="3.22"/><circle class="cls-15" cx="326.87" cy="450.95" r="3.22"/><circle class="cls-15" cx="256.32" cy="489.62" r="3.22"/><circle class="cls-15" cx="317.66" cy="486.41" r="3.22"/><circle class="cls-15" cx="250.42" cy="435.41" r="3.22"/><circle class="cls-15" cx="292.99" cy="701.48" r="5.91"/><circle class="cls-15" cx="54.92" cy="688.62" r="5.91"/><circle class="cls-15" cx="286.28" cy="543.98" r="2.95"/><circle class="cls-15" cx="298.94" cy="516.93" r="3.22"/><circle class="cls-15" cx="329.61" cy="532.93" r="3.22"/><circle class="cls-15" cx="259.07" cy="571.6" r="3.22"/><circle class="cls-15" cx="320.4" cy="568.38" r="3.22"/><circle class="cls-15" cx="253.16" cy="517.38" r="3.22"/><circle class="cls-15" cx="364.14" cy="406.17" r="5.91"/></g></svg>